G04 EAGLE Gerber RS-274X export*
G75*
%MOMM*%
%FSLAX34Y34*%
%LPD*%
%INBottom Copper*%
%IPPOS*%
%AMOC8*
5,1,8,0,0,1.08239X$1,22.5*%
G01*
%ADD10C,1.524000*%
%ADD11C,1.016000*%
%ADD12C,0.609600*%
%ADD13C,0.304800*%
%ADD14C,0.711200*%
%ADD15C,0.254000*%

G36*
X242688Y10176D02*
X242688Y10176D01*
X242807Y10183D01*
X242845Y10196D01*
X242886Y10201D01*
X242996Y10244D01*
X243109Y10281D01*
X243144Y10303D01*
X243181Y10318D01*
X243277Y10387D01*
X243378Y10451D01*
X243406Y10481D01*
X243439Y10504D01*
X243515Y10596D01*
X243596Y10683D01*
X243616Y10718D01*
X243641Y10749D01*
X243692Y10857D01*
X243750Y10961D01*
X243760Y11001D01*
X243777Y11037D01*
X243799Y11154D01*
X243829Y11269D01*
X243833Y11329D01*
X243837Y11349D01*
X243835Y11370D01*
X243839Y11430D01*
X243839Y34349D01*
X243832Y34408D01*
X243834Y34467D01*
X243812Y34565D01*
X243799Y34664D01*
X243777Y34720D01*
X243765Y34778D01*
X243719Y34867D01*
X243682Y34960D01*
X243647Y35008D01*
X243620Y35061D01*
X243554Y35136D01*
X243496Y35217D01*
X243450Y35255D01*
X243410Y35300D01*
X243328Y35356D01*
X243251Y35420D01*
X243197Y35445D01*
X243147Y35479D01*
X243053Y35513D01*
X242963Y35556D01*
X242904Y35567D01*
X242848Y35587D01*
X242749Y35597D01*
X242651Y35615D01*
X242591Y35612D01*
X242532Y35617D01*
X242371Y35602D01*
X242100Y35559D01*
X236219Y35559D01*
X236219Y44450D01*
X236204Y44568D01*
X236197Y44687D01*
X236184Y44725D01*
X236179Y44765D01*
X236136Y44876D01*
X236099Y44989D01*
X236077Y45023D01*
X236062Y45061D01*
X235992Y45157D01*
X235929Y45258D01*
X235899Y45286D01*
X235875Y45318D01*
X235784Y45394D01*
X235697Y45476D01*
X235662Y45495D01*
X235631Y45521D01*
X235523Y45572D01*
X235419Y45629D01*
X235379Y45640D01*
X235343Y45657D01*
X235226Y45679D01*
X235111Y45709D01*
X235050Y45713D01*
X235030Y45717D01*
X235010Y45715D01*
X234950Y45719D01*
X233679Y45719D01*
X233679Y45721D01*
X234950Y45721D01*
X235068Y45736D01*
X235187Y45743D01*
X235225Y45756D01*
X235265Y45761D01*
X235376Y45805D01*
X235489Y45841D01*
X235524Y45863D01*
X235561Y45878D01*
X235657Y45948D01*
X235758Y46011D01*
X235786Y46041D01*
X235819Y46065D01*
X235894Y46156D01*
X235976Y46243D01*
X235996Y46278D01*
X236021Y46310D01*
X236072Y46417D01*
X236130Y46522D01*
X236140Y46561D01*
X236157Y46597D01*
X236179Y46714D01*
X236209Y46829D01*
X236213Y46890D01*
X236217Y46910D01*
X236215Y46930D01*
X236219Y46990D01*
X236219Y55881D01*
X242100Y55881D01*
X242371Y55838D01*
X242431Y55836D01*
X242490Y55825D01*
X242589Y55831D01*
X242689Y55828D01*
X242747Y55841D01*
X242807Y55844D01*
X242902Y55875D01*
X243000Y55897D01*
X243053Y55924D01*
X243109Y55942D01*
X243194Y55996D01*
X243283Y56041D01*
X243328Y56081D01*
X243378Y56113D01*
X243447Y56185D01*
X243522Y56251D01*
X243555Y56301D01*
X243596Y56344D01*
X243644Y56432D01*
X243701Y56514D01*
X243721Y56571D01*
X243750Y56623D01*
X243775Y56719D01*
X243809Y56814D01*
X243814Y56873D01*
X243829Y56931D01*
X243836Y57038D01*
X243837Y57042D01*
X243836Y57047D01*
X243839Y57091D01*
X243839Y59690D01*
X243824Y59808D01*
X243817Y59927D01*
X243804Y59965D01*
X243799Y60006D01*
X243756Y60116D01*
X243719Y60229D01*
X243697Y60264D01*
X243682Y60301D01*
X243613Y60397D01*
X243549Y60498D01*
X243519Y60526D01*
X243496Y60559D01*
X243404Y60635D01*
X243317Y60716D01*
X243282Y60736D01*
X243251Y60761D01*
X243143Y60812D01*
X243039Y60870D01*
X242999Y60880D01*
X242963Y60897D01*
X242846Y60919D01*
X242731Y60949D01*
X242671Y60953D01*
X242651Y60957D01*
X242630Y60955D01*
X242570Y60959D01*
X224039Y60959D01*
X220304Y62506D01*
X217446Y65364D01*
X215899Y69099D01*
X215899Y73141D01*
X217446Y76876D01*
X220304Y79734D01*
X224039Y81281D01*
X242570Y81281D01*
X242688Y81296D01*
X242807Y81303D01*
X242845Y81316D01*
X242886Y81321D01*
X242996Y81364D01*
X243109Y81401D01*
X243144Y81423D01*
X243181Y81438D01*
X243277Y81507D01*
X243378Y81571D01*
X243406Y81601D01*
X243439Y81624D01*
X243515Y81716D01*
X243596Y81803D01*
X243616Y81838D01*
X243641Y81869D01*
X243692Y81977D01*
X243750Y82081D01*
X243760Y82121D01*
X243777Y82157D01*
X243799Y82274D01*
X243829Y82389D01*
X243833Y82449D01*
X243837Y82469D01*
X243835Y82490D01*
X243839Y82550D01*
X243839Y85090D01*
X243824Y85208D01*
X243817Y85327D01*
X243804Y85365D01*
X243799Y85406D01*
X243756Y85516D01*
X243719Y85629D01*
X243697Y85664D01*
X243682Y85701D01*
X243613Y85797D01*
X243549Y85898D01*
X243519Y85926D01*
X243496Y85959D01*
X243404Y86035D01*
X243317Y86116D01*
X243282Y86136D01*
X243251Y86161D01*
X243143Y86212D01*
X243039Y86270D01*
X242999Y86280D01*
X242963Y86297D01*
X242846Y86319D01*
X242731Y86349D01*
X242671Y86353D01*
X242651Y86357D01*
X242630Y86355D01*
X242570Y86359D01*
X224039Y86359D01*
X220304Y87906D01*
X217651Y90560D01*
X217573Y90620D01*
X217501Y90688D01*
X217448Y90717D01*
X217400Y90754D01*
X217309Y90794D01*
X217222Y90842D01*
X217164Y90857D01*
X217108Y90881D01*
X217010Y90896D01*
X216914Y90921D01*
X216814Y90927D01*
X216794Y90931D01*
X216782Y90929D01*
X216754Y90931D01*
X163194Y90931D01*
X163096Y90919D01*
X162997Y90916D01*
X162939Y90899D01*
X162879Y90891D01*
X162787Y90855D01*
X162692Y90827D01*
X162639Y90797D01*
X162583Y90774D01*
X162503Y90716D01*
X162418Y90666D01*
X162342Y90600D01*
X162326Y90588D01*
X162318Y90578D01*
X162297Y90560D01*
X161797Y90059D01*
X158996Y88899D01*
X155964Y88899D01*
X153163Y90059D01*
X151019Y92203D01*
X149859Y95004D01*
X149859Y98036D01*
X151019Y100837D01*
X153163Y102981D01*
X155687Y104026D01*
X155790Y104085D01*
X155897Y104137D01*
X155928Y104163D01*
X155963Y104183D01*
X156049Y104266D01*
X156139Y104344D01*
X156162Y104376D01*
X156191Y104405D01*
X156253Y104506D01*
X156322Y104604D01*
X156336Y104641D01*
X156357Y104676D01*
X156392Y104789D01*
X156435Y104901D01*
X156439Y104941D01*
X156451Y104980D01*
X156457Y105098D01*
X156470Y105217D01*
X156464Y105257D01*
X156466Y105297D01*
X156463Y105312D01*
X156463Y107893D01*
X157391Y110134D01*
X159106Y111849D01*
X161347Y112777D01*
X162383Y112777D01*
X162481Y112789D01*
X162580Y112792D01*
X162638Y112809D01*
X162698Y112817D01*
X162790Y112853D01*
X162885Y112881D01*
X162937Y112911D01*
X162994Y112934D01*
X163074Y112992D01*
X163159Y113042D01*
X163235Y113108D01*
X163251Y113120D01*
X163259Y113130D01*
X163280Y113148D01*
X183524Y133392D01*
X183584Y133470D01*
X183652Y133542D01*
X183681Y133595D01*
X183718Y133643D01*
X183758Y133734D01*
X183806Y133821D01*
X183821Y133879D01*
X183845Y133935D01*
X183860Y134033D01*
X183885Y134129D01*
X183891Y134229D01*
X183895Y134249D01*
X183893Y134261D01*
X183895Y134289D01*
X183895Y171864D01*
X188816Y176785D01*
X215898Y176785D01*
X215927Y176788D01*
X215956Y176786D01*
X216084Y176808D01*
X216213Y176825D01*
X216241Y176835D01*
X216270Y176840D01*
X216388Y176894D01*
X216509Y176942D01*
X216533Y176959D01*
X216560Y176971D01*
X216661Y177052D01*
X216766Y177128D01*
X216785Y177151D01*
X216808Y177170D01*
X216886Y177273D01*
X216969Y177373D01*
X216982Y177400D01*
X216999Y177424D01*
X217070Y177568D01*
X217446Y178476D01*
X220304Y181334D01*
X224039Y182881D01*
X242570Y182881D01*
X242688Y182896D01*
X242807Y182903D01*
X242845Y182916D01*
X242886Y182921D01*
X242996Y182964D01*
X243109Y183001D01*
X243144Y183023D01*
X243181Y183038D01*
X243277Y183107D01*
X243378Y183171D01*
X243406Y183201D01*
X243439Y183224D01*
X243515Y183316D01*
X243596Y183403D01*
X243616Y183438D01*
X243641Y183469D01*
X243692Y183577D01*
X243750Y183681D01*
X243760Y183721D01*
X243777Y183757D01*
X243799Y183874D01*
X243829Y183989D01*
X243833Y184049D01*
X243837Y184069D01*
X243835Y184090D01*
X243839Y184150D01*
X243839Y186690D01*
X243824Y186808D01*
X243817Y186927D01*
X243804Y186965D01*
X243799Y187006D01*
X243756Y187116D01*
X243719Y187229D01*
X243697Y187264D01*
X243682Y187301D01*
X243613Y187397D01*
X243549Y187498D01*
X243519Y187526D01*
X243496Y187559D01*
X243404Y187635D01*
X243317Y187716D01*
X243282Y187736D01*
X243251Y187761D01*
X243143Y187812D01*
X243039Y187870D01*
X242999Y187880D01*
X242963Y187897D01*
X242846Y187919D01*
X242731Y187949D01*
X242671Y187953D01*
X242651Y187957D01*
X242630Y187955D01*
X242570Y187959D01*
X224039Y187959D01*
X220304Y189506D01*
X217446Y192364D01*
X215899Y196099D01*
X215899Y200141D01*
X217446Y203876D01*
X220304Y206734D01*
X224039Y208281D01*
X242570Y208281D01*
X242688Y208296D01*
X242807Y208303D01*
X242845Y208316D01*
X242886Y208321D01*
X242996Y208364D01*
X243109Y208401D01*
X243144Y208423D01*
X243181Y208438D01*
X243277Y208507D01*
X243378Y208571D01*
X243406Y208601D01*
X243439Y208624D01*
X243515Y208716D01*
X243596Y208803D01*
X243616Y208838D01*
X243641Y208869D01*
X243692Y208977D01*
X243750Y209081D01*
X243760Y209121D01*
X243777Y209157D01*
X243799Y209274D01*
X243829Y209389D01*
X243833Y209449D01*
X243837Y209469D01*
X243835Y209490D01*
X243839Y209550D01*
X243839Y242570D01*
X243824Y242688D01*
X243817Y242807D01*
X243804Y242845D01*
X243799Y242886D01*
X243756Y242996D01*
X243719Y243109D01*
X243697Y243144D01*
X243682Y243181D01*
X243613Y243277D01*
X243549Y243378D01*
X243519Y243406D01*
X243496Y243439D01*
X243404Y243515D01*
X243317Y243596D01*
X243282Y243616D01*
X243251Y243641D01*
X243143Y243692D01*
X243039Y243750D01*
X242999Y243760D01*
X242963Y243777D01*
X242846Y243799D01*
X242731Y243829D01*
X242671Y243833D01*
X242651Y243837D01*
X242630Y243835D01*
X242570Y243839D01*
X47853Y243839D01*
X47722Y243823D01*
X47590Y243812D01*
X47564Y243803D01*
X47538Y243799D01*
X47415Y243751D01*
X47289Y243707D01*
X47267Y243692D01*
X47242Y243682D01*
X47135Y243605D01*
X47024Y243531D01*
X47006Y243511D01*
X46985Y243496D01*
X46900Y243393D01*
X46811Y243295D01*
X46799Y243271D01*
X46782Y243251D01*
X46725Y243131D01*
X46664Y243014D01*
X46658Y242987D01*
X46646Y242963D01*
X46621Y242833D01*
X46591Y242704D01*
X46591Y242677D01*
X46586Y242651D01*
X46595Y242519D01*
X46597Y242386D01*
X46604Y242360D01*
X46606Y242333D01*
X46647Y242207D01*
X46682Y242080D01*
X46699Y242045D01*
X46704Y242031D01*
X46716Y242012D01*
X46754Y241935D01*
X48846Y238312D01*
X50561Y231912D01*
X50561Y225288D01*
X48846Y218888D01*
X45534Y213151D01*
X40849Y208466D01*
X35112Y205154D01*
X28712Y203439D01*
X22088Y203439D01*
X15688Y205154D01*
X12065Y207246D01*
X11942Y207297D01*
X11823Y207354D01*
X11796Y207359D01*
X11771Y207369D01*
X11640Y207389D01*
X11510Y207414D01*
X11484Y207412D01*
X11457Y207416D01*
X11325Y207402D01*
X11193Y207394D01*
X11167Y207386D01*
X11141Y207383D01*
X11016Y207337D01*
X10891Y207296D01*
X10868Y207281D01*
X10842Y207272D01*
X10734Y207197D01*
X10622Y207126D01*
X10603Y207106D01*
X10581Y207091D01*
X10495Y206991D01*
X10404Y206894D01*
X10391Y206870D01*
X10373Y206850D01*
X10314Y206731D01*
X10250Y206616D01*
X10244Y206589D01*
X10232Y206565D01*
X10204Y206435D01*
X10171Y206308D01*
X10169Y206269D01*
X10165Y206254D01*
X10166Y206232D01*
X10161Y206147D01*
X10161Y177841D01*
X10167Y177792D01*
X10165Y177743D01*
X10187Y177635D01*
X10201Y177526D01*
X10219Y177480D01*
X10229Y177431D01*
X10277Y177332D01*
X10318Y177230D01*
X10347Y177190D01*
X10369Y177145D01*
X10440Y177062D01*
X10504Y176973D01*
X10543Y176941D01*
X10575Y176903D01*
X10665Y176840D01*
X10749Y176770D01*
X10794Y176749D01*
X10835Y176720D01*
X10938Y176681D01*
X11037Y176635D01*
X11086Y176625D01*
X11132Y176608D01*
X11242Y176595D01*
X11349Y176575D01*
X11399Y176578D01*
X11448Y176572D01*
X11557Y176588D01*
X11667Y176595D01*
X11714Y176610D01*
X11763Y176617D01*
X11916Y176669D01*
X15759Y178261D01*
X35041Y178261D01*
X38776Y176714D01*
X41634Y173856D01*
X43181Y170121D01*
X43181Y166079D01*
X41634Y162344D01*
X38776Y159486D01*
X35041Y157939D01*
X15759Y157939D01*
X11916Y159531D01*
X11868Y159544D01*
X11823Y159565D01*
X11715Y159586D01*
X11609Y159615D01*
X11559Y159616D01*
X11510Y159625D01*
X11401Y159618D01*
X11291Y159620D01*
X11243Y159609D01*
X11193Y159605D01*
X11089Y159572D01*
X10982Y159546D01*
X10938Y159523D01*
X10891Y159507D01*
X10798Y159449D01*
X10701Y159397D01*
X10664Y159364D01*
X10622Y159337D01*
X10547Y159257D01*
X10465Y159183D01*
X10438Y159142D01*
X10404Y159106D01*
X10351Y159010D01*
X10291Y158918D01*
X10274Y158871D01*
X10250Y158827D01*
X10223Y158721D01*
X10187Y158617D01*
X10183Y158567D01*
X10171Y158519D01*
X10161Y158359D01*
X10161Y152441D01*
X10167Y152392D01*
X10165Y152343D01*
X10187Y152235D01*
X10201Y152126D01*
X10219Y152080D01*
X10229Y152031D01*
X10277Y151932D01*
X10318Y151830D01*
X10347Y151790D01*
X10369Y151745D01*
X10440Y151662D01*
X10504Y151573D01*
X10543Y151541D01*
X10575Y151503D01*
X10665Y151440D01*
X10749Y151370D01*
X10794Y151349D01*
X10835Y151320D01*
X10938Y151281D01*
X11037Y151235D01*
X11086Y151225D01*
X11132Y151208D01*
X11242Y151195D01*
X11349Y151175D01*
X11399Y151178D01*
X11448Y151172D01*
X11557Y151188D01*
X11667Y151195D01*
X11714Y151210D01*
X11763Y151217D01*
X11916Y151269D01*
X15759Y152861D01*
X35041Y152861D01*
X38776Y151314D01*
X41634Y148456D01*
X43181Y144721D01*
X43181Y140679D01*
X41634Y136944D01*
X38776Y134086D01*
X35041Y132539D01*
X15759Y132539D01*
X11916Y134131D01*
X11868Y134144D01*
X11823Y134165D01*
X11715Y134186D01*
X11609Y134215D01*
X11559Y134216D01*
X11510Y134225D01*
X11401Y134218D01*
X11291Y134220D01*
X11243Y134209D01*
X11193Y134205D01*
X11089Y134172D01*
X10982Y134146D01*
X10938Y134123D01*
X10891Y134107D01*
X10798Y134049D01*
X10701Y133997D01*
X10664Y133964D01*
X10622Y133937D01*
X10547Y133857D01*
X10465Y133783D01*
X10438Y133742D01*
X10404Y133706D01*
X10351Y133610D01*
X10291Y133518D01*
X10274Y133471D01*
X10250Y133427D01*
X10223Y133321D01*
X10187Y133217D01*
X10183Y133167D01*
X10171Y133119D01*
X10161Y132959D01*
X10161Y122241D01*
X10167Y122192D01*
X10165Y122143D01*
X10187Y122035D01*
X10201Y121926D01*
X10219Y121880D01*
X10229Y121831D01*
X10277Y121732D01*
X10318Y121630D01*
X10347Y121590D01*
X10369Y121545D01*
X10440Y121462D01*
X10504Y121373D01*
X10543Y121341D01*
X10575Y121303D01*
X10665Y121240D01*
X10749Y121170D01*
X10794Y121149D01*
X10835Y121120D01*
X10938Y121081D01*
X11037Y121035D01*
X11086Y121025D01*
X11132Y121008D01*
X11242Y120995D01*
X11349Y120975D01*
X11399Y120978D01*
X11448Y120972D01*
X11557Y120988D01*
X11667Y120995D01*
X11714Y121010D01*
X11763Y121017D01*
X11916Y121069D01*
X15759Y122661D01*
X35041Y122661D01*
X38776Y121114D01*
X41634Y118256D01*
X43181Y114521D01*
X43181Y110479D01*
X41634Y106744D01*
X38776Y103886D01*
X35041Y102339D01*
X15759Y102339D01*
X11916Y103931D01*
X11868Y103944D01*
X11823Y103965D01*
X11715Y103986D01*
X11609Y104015D01*
X11559Y104016D01*
X11510Y104025D01*
X11401Y104018D01*
X11291Y104020D01*
X11243Y104009D01*
X11193Y104005D01*
X11089Y103972D01*
X10982Y103946D01*
X10938Y103923D01*
X10891Y103907D01*
X10798Y103849D01*
X10701Y103797D01*
X10664Y103764D01*
X10622Y103737D01*
X10547Y103657D01*
X10465Y103583D01*
X10438Y103542D01*
X10404Y103506D01*
X10351Y103410D01*
X10291Y103318D01*
X10274Y103271D01*
X10250Y103227D01*
X10223Y103121D01*
X10187Y103017D01*
X10183Y102967D01*
X10171Y102919D01*
X10161Y102759D01*
X10161Y96841D01*
X10167Y96792D01*
X10165Y96743D01*
X10187Y96635D01*
X10201Y96526D01*
X10219Y96480D01*
X10229Y96431D01*
X10277Y96332D01*
X10318Y96230D01*
X10347Y96190D01*
X10369Y96145D01*
X10440Y96062D01*
X10504Y95973D01*
X10543Y95941D01*
X10575Y95903D01*
X10665Y95840D01*
X10749Y95770D01*
X10794Y95749D01*
X10835Y95720D01*
X10938Y95681D01*
X11037Y95635D01*
X11086Y95625D01*
X11132Y95608D01*
X11242Y95595D01*
X11349Y95575D01*
X11399Y95578D01*
X11448Y95572D01*
X11557Y95588D01*
X11667Y95595D01*
X11714Y95610D01*
X11763Y95617D01*
X11916Y95669D01*
X15759Y97261D01*
X35041Y97261D01*
X38776Y95714D01*
X41634Y92856D01*
X43181Y89121D01*
X43181Y85079D01*
X41634Y81344D01*
X38776Y78486D01*
X35041Y76939D01*
X15759Y76939D01*
X11916Y78531D01*
X11868Y78544D01*
X11823Y78565D01*
X11715Y78586D01*
X11609Y78615D01*
X11559Y78616D01*
X11510Y78625D01*
X11401Y78618D01*
X11291Y78620D01*
X11243Y78609D01*
X11193Y78605D01*
X11089Y78572D01*
X10982Y78546D01*
X10938Y78523D01*
X10891Y78507D01*
X10798Y78449D01*
X10701Y78397D01*
X10664Y78364D01*
X10622Y78337D01*
X10547Y78257D01*
X10465Y78183D01*
X10438Y78142D01*
X10404Y78106D01*
X10351Y78010D01*
X10291Y77918D01*
X10274Y77871D01*
X10250Y77827D01*
X10223Y77721D01*
X10187Y77617D01*
X10183Y77567D01*
X10171Y77519D01*
X10161Y77359D01*
X10161Y47853D01*
X10177Y47722D01*
X10188Y47590D01*
X10197Y47564D01*
X10201Y47538D01*
X10249Y47415D01*
X10293Y47289D01*
X10308Y47267D01*
X10318Y47242D01*
X10395Y47135D01*
X10469Y47024D01*
X10489Y47006D01*
X10504Y46985D01*
X10607Y46900D01*
X10705Y46811D01*
X10729Y46799D01*
X10749Y46782D01*
X10869Y46725D01*
X10986Y46664D01*
X11013Y46658D01*
X11037Y46646D01*
X11167Y46621D01*
X11296Y46591D01*
X11323Y46591D01*
X11349Y46586D01*
X11481Y46595D01*
X11614Y46597D01*
X11640Y46604D01*
X11667Y46606D01*
X11793Y46647D01*
X11920Y46682D01*
X11955Y46699D01*
X11969Y46704D01*
X11988Y46716D01*
X12065Y46754D01*
X15688Y48846D01*
X22088Y50561D01*
X28712Y50561D01*
X35112Y48846D01*
X40849Y45534D01*
X45534Y40849D01*
X48846Y35112D01*
X50561Y28712D01*
X50561Y22088D01*
X48846Y15688D01*
X46754Y12065D01*
X46703Y11942D01*
X46646Y11823D01*
X46641Y11796D01*
X46631Y11771D01*
X46611Y11640D01*
X46586Y11510D01*
X46588Y11484D01*
X46584Y11457D01*
X46598Y11325D01*
X46606Y11193D01*
X46614Y11167D01*
X46617Y11141D01*
X46663Y11016D01*
X46704Y10891D01*
X46719Y10868D01*
X46728Y10842D01*
X46803Y10734D01*
X46874Y10622D01*
X46894Y10603D01*
X46909Y10581D01*
X47009Y10495D01*
X47106Y10404D01*
X47130Y10391D01*
X47150Y10373D01*
X47269Y10314D01*
X47384Y10250D01*
X47411Y10244D01*
X47435Y10232D01*
X47565Y10204D01*
X47692Y10171D01*
X47731Y10169D01*
X47746Y10165D01*
X47768Y10166D01*
X47853Y10161D01*
X242570Y10161D01*
X242688Y10176D01*
G37*
%LPC*%
G36*
X144202Y68198D02*
X144202Y68198D01*
X141961Y69126D01*
X140975Y70113D01*
X140897Y70173D01*
X140825Y70241D01*
X140772Y70270D01*
X140724Y70307D01*
X140633Y70347D01*
X140547Y70395D01*
X140488Y70410D01*
X140432Y70434D01*
X140334Y70449D01*
X140239Y70474D01*
X140139Y70480D01*
X140118Y70484D01*
X140106Y70482D01*
X140078Y70484D01*
X134693Y70484D01*
X113029Y92148D01*
X113029Y106120D01*
X113028Y106129D01*
X113029Y106139D01*
X113008Y106287D01*
X112989Y106436D01*
X112986Y106444D01*
X112985Y106453D01*
X112933Y106606D01*
X112267Y108212D01*
X112267Y111459D01*
X112250Y111597D01*
X112237Y111736D01*
X112230Y111755D01*
X112227Y111775D01*
X112176Y111904D01*
X112129Y112035D01*
X112118Y112052D01*
X112110Y112071D01*
X112029Y112183D01*
X111951Y112298D01*
X111935Y112312D01*
X111924Y112328D01*
X111816Y112417D01*
X111712Y112509D01*
X111694Y112518D01*
X111679Y112531D01*
X111553Y112590D01*
X111429Y112653D01*
X111409Y112658D01*
X111391Y112666D01*
X111255Y112692D01*
X111119Y112723D01*
X111098Y112722D01*
X111079Y112726D01*
X110940Y112717D01*
X110801Y112713D01*
X110781Y112708D01*
X110761Y112706D01*
X110629Y112664D01*
X110495Y112625D01*
X110478Y112615D01*
X110459Y112608D01*
X110341Y112534D01*
X110221Y112463D01*
X110200Y112445D01*
X110190Y112438D01*
X110176Y112423D01*
X110101Y112357D01*
X107560Y109817D01*
X107500Y109739D01*
X107432Y109666D01*
X107403Y109613D01*
X107366Y109566D01*
X107326Y109475D01*
X107278Y109388D01*
X107263Y109329D01*
X107239Y109274D01*
X107224Y109176D01*
X107199Y109080D01*
X107193Y108980D01*
X107189Y108960D01*
X107191Y108947D01*
X107189Y108919D01*
X107189Y107314D01*
X107201Y107216D01*
X107204Y107117D01*
X107221Y107059D01*
X107229Y106999D01*
X107265Y106907D01*
X107293Y106812D01*
X107323Y106759D01*
X107346Y106703D01*
X107404Y106623D01*
X107454Y106538D01*
X107520Y106462D01*
X107532Y106446D01*
X107542Y106438D01*
X107560Y106417D01*
X108061Y105917D01*
X109221Y103116D01*
X109221Y100084D01*
X108061Y97283D01*
X105917Y95139D01*
X103116Y93979D01*
X100084Y93979D01*
X97283Y95139D01*
X95139Y97283D01*
X93979Y100084D01*
X93979Y103116D01*
X95139Y105917D01*
X95640Y106417D01*
X95700Y106495D01*
X95768Y106567D01*
X95797Y106620D01*
X95834Y106668D01*
X95874Y106759D01*
X95922Y106846D01*
X95937Y106904D01*
X95961Y106960D01*
X95976Y107058D01*
X96001Y107154D01*
X96007Y107254D01*
X96011Y107274D01*
X96009Y107286D01*
X96011Y107314D01*
X96011Y112872D01*
X96862Y114926D01*
X108340Y126403D01*
X108400Y126481D01*
X108468Y126554D01*
X108497Y126607D01*
X108534Y126654D01*
X108574Y126745D01*
X108622Y126832D01*
X108637Y126891D01*
X108661Y126946D01*
X108676Y127044D01*
X108701Y127140D01*
X108707Y127240D01*
X108711Y127260D01*
X108709Y127273D01*
X108711Y127301D01*
X108711Y163672D01*
X109562Y165726D01*
X124088Y180251D01*
X124148Y180329D01*
X124216Y180402D01*
X124245Y180455D01*
X124282Y180502D01*
X124322Y180593D01*
X124370Y180680D01*
X124385Y180739D01*
X124409Y180794D01*
X124424Y180892D01*
X124449Y180988D01*
X124455Y181088D01*
X124459Y181108D01*
X124457Y181121D01*
X124459Y181149D01*
X124459Y181856D01*
X125619Y184657D01*
X127763Y186801D01*
X130564Y187961D01*
X133596Y187961D01*
X136397Y186801D01*
X138541Y184657D01*
X139701Y181856D01*
X139701Y178824D01*
X138541Y176023D01*
X136397Y173879D01*
X133596Y172719D01*
X132889Y172719D01*
X132790Y172707D01*
X132691Y172704D01*
X132633Y172687D01*
X132573Y172679D01*
X132481Y172643D01*
X132386Y172615D01*
X132334Y172585D01*
X132277Y172562D01*
X132197Y172504D01*
X132112Y172454D01*
X132037Y172388D01*
X132020Y172376D01*
X132012Y172366D01*
X131991Y172348D01*
X120260Y160617D01*
X120200Y160539D01*
X120132Y160466D01*
X120103Y160413D01*
X120066Y160366D01*
X120026Y160275D01*
X119978Y160188D01*
X119963Y160129D01*
X119939Y160074D01*
X119924Y159976D01*
X119899Y159880D01*
X119893Y159780D01*
X119889Y159760D01*
X119891Y159747D01*
X119889Y159719D01*
X119889Y123348D01*
X119038Y121294D01*
X117287Y119544D01*
X117260Y119516D01*
X117174Y119406D01*
X117085Y119299D01*
X117077Y119280D01*
X117065Y119265D01*
X117009Y119137D01*
X116950Y119011D01*
X116946Y118991D01*
X116938Y118973D01*
X116916Y118835D01*
X116890Y118698D01*
X116891Y118679D01*
X116888Y118659D01*
X116901Y118520D01*
X116910Y118381D01*
X116916Y118362D01*
X116918Y118342D01*
X116965Y118211D01*
X117008Y118079D01*
X117018Y118062D01*
X117025Y118043D01*
X117103Y117928D01*
X117178Y117810D01*
X117192Y117796D01*
X117204Y117780D01*
X117308Y117688D01*
X117409Y117592D01*
X117427Y117582D01*
X117442Y117569D01*
X117566Y117506D01*
X117688Y117438D01*
X117707Y117433D01*
X117725Y117424D01*
X117861Y117394D01*
X117996Y117359D01*
X118023Y117357D01*
X118035Y117355D01*
X118056Y117355D01*
X118157Y117349D01*
X121404Y117349D01*
X124205Y116189D01*
X126349Y114045D01*
X127509Y111244D01*
X127509Y108212D01*
X126349Y105411D01*
X124205Y103267D01*
X121434Y102120D01*
X121409Y102105D01*
X121381Y102096D01*
X121271Y102027D01*
X121158Y101962D01*
X121137Y101942D01*
X121112Y101926D01*
X121023Y101831D01*
X120930Y101741D01*
X120914Y101716D01*
X120894Y101694D01*
X120831Y101581D01*
X120763Y101470D01*
X120755Y101442D01*
X120740Y101416D01*
X120708Y101290D01*
X120670Y101166D01*
X120668Y101137D01*
X120661Y101108D01*
X120651Y100947D01*
X120651Y95830D01*
X120663Y95732D01*
X120666Y95633D01*
X120683Y95575D01*
X120691Y95515D01*
X120727Y95423D01*
X120755Y95327D01*
X120785Y95275D01*
X120808Y95219D01*
X120866Y95139D01*
X120916Y95054D01*
X120982Y94978D01*
X120994Y94962D01*
X121004Y94954D01*
X121022Y94933D01*
X137478Y78477D01*
X137556Y78417D01*
X137628Y78349D01*
X137681Y78320D01*
X137729Y78283D01*
X137820Y78243D01*
X137907Y78195D01*
X137965Y78180D01*
X138021Y78156D01*
X138119Y78141D01*
X138215Y78116D01*
X138315Y78110D01*
X138335Y78106D01*
X138347Y78108D01*
X138375Y78106D01*
X140078Y78106D01*
X140176Y78118D01*
X140275Y78121D01*
X140333Y78138D01*
X140393Y78146D01*
X140486Y78182D01*
X140581Y78210D01*
X140633Y78240D01*
X140689Y78263D01*
X140769Y78321D01*
X140855Y78371D01*
X140930Y78437D01*
X140946Y78449D01*
X140954Y78459D01*
X140975Y78477D01*
X141961Y79464D01*
X144202Y80392D01*
X146628Y80392D01*
X148869Y79464D01*
X150584Y77749D01*
X151512Y75508D01*
X151512Y73082D01*
X150584Y70841D01*
X148869Y69126D01*
X146628Y68198D01*
X144202Y68198D01*
G37*
%LPD*%
%LPC*%
G36*
X108007Y204723D02*
X108007Y204723D01*
X105766Y205651D01*
X104051Y207366D01*
X103123Y209607D01*
X103123Y212033D01*
X104051Y214274D01*
X105766Y215989D01*
X106103Y216128D01*
X106111Y216133D01*
X106120Y216135D01*
X106248Y216211D01*
X106379Y216285D01*
X106386Y216292D01*
X106394Y216297D01*
X106515Y216403D01*
X112404Y222292D01*
X115156Y225045D01*
X212504Y225045D01*
X212640Y224908D01*
X212718Y224848D01*
X212790Y224780D01*
X212843Y224751D01*
X212891Y224714D01*
X212982Y224674D01*
X213069Y224626D01*
X213127Y224611D01*
X213183Y224587D01*
X213281Y224572D01*
X213377Y224547D01*
X213477Y224541D01*
X213497Y224537D01*
X213509Y224539D01*
X213537Y224537D01*
X214573Y224537D01*
X216814Y223609D01*
X218529Y221894D01*
X219457Y219653D01*
X219457Y217227D01*
X218529Y214986D01*
X216814Y213271D01*
X214573Y212343D01*
X212147Y212343D01*
X209906Y213271D01*
X208191Y214986D01*
X207717Y216132D01*
X207702Y216157D01*
X207693Y216185D01*
X207624Y216295D01*
X207560Y216408D01*
X207539Y216429D01*
X207523Y216454D01*
X207429Y216543D01*
X207338Y216636D01*
X207313Y216652D01*
X207292Y216672D01*
X207178Y216735D01*
X207067Y216803D01*
X207039Y216811D01*
X207013Y216826D01*
X206887Y216858D01*
X206763Y216896D01*
X206734Y216898D01*
X206705Y216905D01*
X206544Y216915D01*
X119049Y216915D01*
X118951Y216903D01*
X118852Y216900D01*
X118794Y216883D01*
X118734Y216875D01*
X118642Y216839D01*
X118547Y216811D01*
X118495Y216781D01*
X118438Y216758D01*
X118358Y216700D01*
X118273Y216650D01*
X118197Y216584D01*
X118181Y216572D01*
X118173Y216562D01*
X118152Y216544D01*
X115426Y213817D01*
X115408Y213794D01*
X115385Y213775D01*
X115310Y213669D01*
X115231Y213566D01*
X115219Y213539D01*
X115202Y213515D01*
X115156Y213393D01*
X115104Y213274D01*
X115100Y213245D01*
X115089Y213217D01*
X115075Y213088D01*
X115055Y212960D01*
X115057Y212931D01*
X115054Y212901D01*
X115072Y212773D01*
X115084Y212643D01*
X115094Y212616D01*
X115098Y212586D01*
X115151Y212434D01*
X115317Y212033D01*
X115317Y209607D01*
X114389Y207366D01*
X112674Y205651D01*
X110433Y204723D01*
X108007Y204723D01*
G37*
%LPD*%
%LPC*%
G36*
X158807Y24383D02*
X158807Y24383D01*
X156566Y25311D01*
X154851Y27026D01*
X153923Y29267D01*
X153923Y31693D01*
X154851Y33934D01*
X156566Y35649D01*
X158807Y36577D01*
X161233Y36577D01*
X163474Y35649D01*
X164206Y34916D01*
X164284Y34856D01*
X164356Y34788D01*
X164409Y34759D01*
X164457Y34722D01*
X164548Y34682D01*
X164634Y34634D01*
X164693Y34619D01*
X164749Y34595D01*
X164847Y34580D01*
X164942Y34555D01*
X165042Y34549D01*
X165063Y34545D01*
X165075Y34547D01*
X165103Y34545D01*
X175591Y34545D01*
X175689Y34557D01*
X175788Y34560D01*
X175846Y34577D01*
X175906Y34585D01*
X175998Y34621D01*
X176093Y34649D01*
X176145Y34679D01*
X176202Y34702D01*
X176282Y34760D01*
X176367Y34810D01*
X176443Y34876D01*
X176459Y34888D01*
X176467Y34898D01*
X176488Y34916D01*
X178444Y36872D01*
X178504Y36950D01*
X178572Y37022D01*
X178601Y37075D01*
X178638Y37123D01*
X178678Y37214D01*
X178726Y37301D01*
X178741Y37359D01*
X178765Y37415D01*
X178780Y37513D01*
X178805Y37609D01*
X178811Y37709D01*
X178815Y37729D01*
X178813Y37741D01*
X178815Y37769D01*
X178815Y76197D01*
X178803Y76295D01*
X178800Y76394D01*
X178783Y76452D01*
X178775Y76512D01*
X178739Y76605D01*
X178711Y76700D01*
X178681Y76752D01*
X178658Y76808D01*
X178600Y76888D01*
X178550Y76974D01*
X178484Y77049D01*
X178472Y77065D01*
X178462Y77073D01*
X178444Y77094D01*
X177711Y77826D01*
X176783Y80067D01*
X176783Y82493D01*
X177711Y84734D01*
X179426Y86449D01*
X181667Y87377D01*
X184093Y87377D01*
X186334Y86449D01*
X188049Y84734D01*
X188977Y82493D01*
X188977Y80067D01*
X188049Y77826D01*
X187316Y77094D01*
X187256Y77016D01*
X187188Y76944D01*
X187159Y76891D01*
X187122Y76843D01*
X187082Y76752D01*
X187034Y76666D01*
X187019Y76607D01*
X186995Y76551D01*
X186980Y76453D01*
X186955Y76358D01*
X186949Y76258D01*
X186945Y76237D01*
X186947Y76225D01*
X186945Y76197D01*
X186945Y33876D01*
X179484Y26415D01*
X165103Y26415D01*
X165005Y26403D01*
X164906Y26400D01*
X164848Y26383D01*
X164788Y26375D01*
X164695Y26339D01*
X164600Y26311D01*
X164548Y26281D01*
X164492Y26258D01*
X164412Y26200D01*
X164326Y26150D01*
X164251Y26084D01*
X164235Y26072D01*
X164227Y26062D01*
X164206Y26044D01*
X163474Y25311D01*
X161233Y24383D01*
X158807Y24383D01*
G37*
%LPD*%
%LPC*%
G36*
X216201Y48259D02*
X216201Y48259D01*
X216644Y49620D01*
X217370Y51045D01*
X218310Y52339D01*
X219441Y53470D01*
X220735Y54410D01*
X222160Y55136D01*
X223681Y55631D01*
X225260Y55881D01*
X231141Y55881D01*
X231141Y48259D01*
X216201Y48259D01*
G37*
%LPD*%
%LPC*%
G36*
X225260Y35559D02*
X225260Y35559D01*
X223681Y35809D01*
X222160Y36304D01*
X220735Y37030D01*
X219441Y37970D01*
X218310Y39101D01*
X217370Y40395D01*
X216644Y41820D01*
X216201Y43181D01*
X231141Y43181D01*
X231141Y35559D01*
X225260Y35559D01*
G37*
%LPD*%
D10*
X17780Y168100D02*
X33020Y168100D01*
X33020Y142700D02*
X17780Y142700D01*
X17780Y87100D02*
X33020Y87100D01*
X33020Y112500D02*
X17780Y112500D01*
X226060Y198120D02*
X241300Y198120D01*
X241300Y172720D02*
X226060Y172720D01*
X226060Y147320D02*
X241300Y147320D01*
X241300Y121920D02*
X226060Y121920D01*
X226060Y96520D02*
X241300Y96520D01*
X241300Y71120D02*
X226060Y71120D01*
X226060Y45720D02*
X241300Y45720D01*
D11*
X51054Y46736D03*
X215900Y20320D03*
X70866Y223266D03*
X137160Y195580D03*
X93980Y152400D03*
X91440Y124460D03*
X45974Y101092D03*
D12*
X157480Y96520D02*
X233680Y96520D01*
D11*
X157480Y96520D03*
X101600Y101600D03*
D12*
X101600Y111760D01*
X114300Y124460D01*
X114300Y162560D01*
X132080Y180340D01*
D11*
X132080Y180340D03*
D13*
X190500Y172720D02*
X233680Y172720D01*
X190500Y172720D02*
X187960Y170180D01*
X187960Y132080D01*
X162560Y106680D01*
D14*
X162560Y106680D03*
X160020Y30480D03*
D13*
X177800Y30480D01*
X182880Y35560D01*
X182880Y81280D01*
D14*
X182880Y81280D03*
X109220Y210820D03*
D13*
X109220Y213360D01*
X116840Y220980D01*
X210820Y220980D01*
X213360Y218440D01*
D14*
X213360Y218440D03*
X145415Y74295D03*
D15*
X136271Y74295D01*
X116840Y93726D02*
X116840Y106680D01*
X119888Y109728D01*
D11*
X119888Y109728D03*
D15*
X116840Y93726D02*
X136271Y74295D01*
M02*
