G04 EAGLE Gerber RS-274X export*
G75*
%MOMM*%
%FSLAX34Y34*%
%LPD*%
%IN*%
%IPPOS*%
%AMOC8*
5,1,8,0,0,1.08239X$1,22.5*%
G01*
%ADD10C,0.254000*%


D10*
X0Y0D02*
X254000Y0D01*
X254000Y254000D01*
X0Y254000D01*
X0Y0D01*
X40400Y24864D02*
X40324Y23796D01*
X40171Y22735D01*
X39943Y21688D01*
X39641Y20660D01*
X39267Y19656D01*
X38822Y18681D01*
X38308Y17741D01*
X37729Y16840D01*
X37087Y15982D01*
X36385Y15172D01*
X35628Y14415D01*
X34818Y13713D01*
X33960Y13071D01*
X33059Y12492D01*
X32119Y11978D01*
X31144Y11533D01*
X30140Y11159D01*
X29112Y10857D01*
X28065Y10629D01*
X27004Y10476D01*
X25936Y10400D01*
X24864Y10400D01*
X23796Y10476D01*
X22735Y10629D01*
X21688Y10857D01*
X20660Y11159D01*
X19656Y11533D01*
X18681Y11978D01*
X17741Y12492D01*
X16840Y13071D01*
X15982Y13713D01*
X15172Y14415D01*
X14415Y15172D01*
X13713Y15982D01*
X13071Y16840D01*
X12492Y17741D01*
X11978Y18681D01*
X11533Y19656D01*
X11159Y20660D01*
X10857Y21688D01*
X10629Y22735D01*
X10476Y23796D01*
X10400Y24864D01*
X10400Y25936D01*
X10476Y27004D01*
X10629Y28065D01*
X10857Y29112D01*
X11159Y30140D01*
X11533Y31144D01*
X11978Y32119D01*
X12492Y33059D01*
X13071Y33960D01*
X13713Y34818D01*
X14415Y35628D01*
X15172Y36385D01*
X15982Y37087D01*
X16840Y37729D01*
X17741Y38308D01*
X18681Y38822D01*
X19656Y39267D01*
X20660Y39641D01*
X21688Y39943D01*
X22735Y40171D01*
X23796Y40324D01*
X24864Y40400D01*
X25936Y40400D01*
X27004Y40324D01*
X28065Y40171D01*
X29112Y39943D01*
X30140Y39641D01*
X31144Y39267D01*
X32119Y38822D01*
X33059Y38308D01*
X33960Y37729D01*
X34818Y37087D01*
X35628Y36385D01*
X36385Y35628D01*
X37087Y34818D01*
X37729Y33960D01*
X38308Y33059D01*
X38822Y32119D01*
X39267Y31144D01*
X39641Y30140D01*
X39943Y29112D01*
X40171Y28065D01*
X40324Y27004D01*
X40400Y25936D01*
X40400Y24864D01*
X40400Y228064D02*
X40324Y226996D01*
X40171Y225935D01*
X39943Y224888D01*
X39641Y223860D01*
X39267Y222856D01*
X38822Y221881D01*
X38308Y220941D01*
X37729Y220040D01*
X37087Y219182D01*
X36385Y218372D01*
X35628Y217615D01*
X34818Y216913D01*
X33960Y216271D01*
X33059Y215692D01*
X32119Y215178D01*
X31144Y214733D01*
X30140Y214359D01*
X29112Y214057D01*
X28065Y213829D01*
X27004Y213676D01*
X25936Y213600D01*
X24864Y213600D01*
X23796Y213676D01*
X22735Y213829D01*
X21688Y214057D01*
X20660Y214359D01*
X19656Y214733D01*
X18681Y215178D01*
X17741Y215692D01*
X16840Y216271D01*
X15982Y216913D01*
X15172Y217615D01*
X14415Y218372D01*
X13713Y219182D01*
X13071Y220040D01*
X12492Y220941D01*
X11978Y221881D01*
X11533Y222856D01*
X11159Y223860D01*
X10857Y224888D01*
X10629Y225935D01*
X10476Y226996D01*
X10400Y228064D01*
X10400Y229136D01*
X10476Y230204D01*
X10629Y231265D01*
X10857Y232312D01*
X11159Y233340D01*
X11533Y234344D01*
X11978Y235319D01*
X12492Y236259D01*
X13071Y237160D01*
X13713Y238018D01*
X14415Y238828D01*
X15172Y239585D01*
X15982Y240287D01*
X16840Y240929D01*
X17741Y241508D01*
X18681Y242022D01*
X19656Y242467D01*
X20660Y242841D01*
X21688Y243143D01*
X22735Y243371D01*
X23796Y243524D01*
X24864Y243600D01*
X25936Y243600D01*
X27004Y243524D01*
X28065Y243371D01*
X29112Y243143D01*
X30140Y242841D01*
X31144Y242467D01*
X32119Y242022D01*
X33059Y241508D01*
X33960Y240929D01*
X34818Y240287D01*
X35628Y239585D01*
X36385Y238828D01*
X37087Y238018D01*
X37729Y237160D01*
X38308Y236259D01*
X38822Y235319D01*
X39267Y234344D01*
X39641Y233340D01*
X39943Y232312D01*
X40171Y231265D01*
X40324Y230204D01*
X40400Y229136D01*
X40400Y228064D01*
M02*
