G04 EAGLE Gerber RS-274X export*
G75*
%MOMM*%
%FSLAX34Y34*%
%LPD*%
%INSilkscreen Top*%
%IPPOS*%
%AMOC8*
5,1,8,0,0,1.08239X$1,22.5*%
G01*
%ADD10C,0.203200*%
%ADD11C,0.025400*%
%ADD12C,0.406400*%
%ADD13C,0.101600*%
%ADD14C,0.152400*%
%ADD15C,0.127000*%


D10*
X126600Y169500D02*
X126600Y84500D01*
X76600Y84500D01*
X76600Y169500D01*
X126600Y169500D01*
X81589Y162560D02*
X81591Y162654D01*
X81597Y162748D01*
X81607Y162841D01*
X81621Y162935D01*
X81638Y163027D01*
X81660Y163118D01*
X81685Y163209D01*
X81715Y163298D01*
X81748Y163387D01*
X81784Y163473D01*
X81825Y163558D01*
X81869Y163641D01*
X81916Y163723D01*
X81967Y163802D01*
X82021Y163879D01*
X82078Y163954D01*
X82138Y164026D01*
X82201Y164095D01*
X82268Y164162D01*
X82337Y164226D01*
X82408Y164287D01*
X82482Y164345D01*
X82559Y164400D01*
X82637Y164452D01*
X82718Y164500D01*
X82801Y164545D01*
X82885Y164586D01*
X82972Y164623D01*
X83059Y164657D01*
X83149Y164688D01*
X83239Y164714D01*
X83330Y164737D01*
X83422Y164755D01*
X83515Y164770D01*
X83609Y164781D01*
X83702Y164788D01*
X83796Y164791D01*
X83891Y164790D01*
X83984Y164785D01*
X84078Y164776D01*
X84171Y164763D01*
X84264Y164746D01*
X84356Y164726D01*
X84446Y164701D01*
X84536Y164673D01*
X84625Y164641D01*
X84712Y164605D01*
X84797Y164566D01*
X84881Y164523D01*
X84963Y164476D01*
X85042Y164426D01*
X85120Y164373D01*
X85195Y164317D01*
X85268Y164257D01*
X85338Y164195D01*
X85406Y164129D01*
X85471Y164061D01*
X85532Y163990D01*
X85591Y163917D01*
X85647Y163841D01*
X85699Y163763D01*
X85748Y163682D01*
X85794Y163600D01*
X85836Y163516D01*
X85874Y163430D01*
X85909Y163343D01*
X85940Y163254D01*
X85968Y163164D01*
X85991Y163073D01*
X86011Y162981D01*
X86027Y162888D01*
X86039Y162795D01*
X86047Y162701D01*
X86051Y162607D01*
X86051Y162513D01*
X86047Y162419D01*
X86039Y162325D01*
X86027Y162232D01*
X86011Y162139D01*
X85991Y162047D01*
X85968Y161956D01*
X85940Y161866D01*
X85909Y161777D01*
X85874Y161690D01*
X85836Y161604D01*
X85794Y161520D01*
X85748Y161438D01*
X85699Y161357D01*
X85647Y161279D01*
X85591Y161203D01*
X85532Y161130D01*
X85471Y161059D01*
X85406Y160991D01*
X85338Y160925D01*
X85268Y160863D01*
X85195Y160803D01*
X85120Y160747D01*
X85042Y160694D01*
X84963Y160644D01*
X84881Y160597D01*
X84797Y160554D01*
X84712Y160515D01*
X84625Y160479D01*
X84536Y160447D01*
X84446Y160419D01*
X84356Y160394D01*
X84264Y160374D01*
X84171Y160357D01*
X84078Y160344D01*
X83984Y160335D01*
X83891Y160330D01*
X83796Y160329D01*
X83702Y160332D01*
X83609Y160339D01*
X83515Y160350D01*
X83422Y160365D01*
X83330Y160383D01*
X83239Y160406D01*
X83149Y160432D01*
X83059Y160463D01*
X82972Y160497D01*
X82885Y160534D01*
X82801Y160575D01*
X82718Y160620D01*
X82637Y160668D01*
X82559Y160720D01*
X82482Y160775D01*
X82408Y160833D01*
X82337Y160894D01*
X82268Y160958D01*
X82201Y161025D01*
X82138Y161094D01*
X82078Y161166D01*
X82021Y161241D01*
X81967Y161318D01*
X81916Y161397D01*
X81869Y161479D01*
X81825Y161562D01*
X81784Y161647D01*
X81748Y161733D01*
X81715Y161822D01*
X81685Y161911D01*
X81660Y162002D01*
X81638Y162093D01*
X81621Y162185D01*
X81607Y162279D01*
X81597Y162372D01*
X81591Y162466D01*
X81589Y162560D01*
D11*
X114424Y157743D02*
X117601Y157743D01*
X118237Y158378D01*
X118237Y159649D01*
X117601Y160285D01*
X114424Y160285D01*
X115695Y161485D02*
X114424Y162756D01*
X118237Y162756D01*
X118237Y161485D02*
X118237Y164027D01*
D12*
X114300Y76505D02*
X114300Y75895D01*
D11*
X117739Y69091D02*
X118375Y68456D01*
X117739Y69091D02*
X116468Y69091D01*
X115833Y68456D01*
X115833Y65914D01*
X116468Y65278D01*
X117739Y65278D01*
X118375Y65914D01*
X119575Y67820D02*
X120846Y69091D01*
X120846Y65278D01*
X119575Y65278D02*
X122117Y65278D01*
D12*
X82550Y75895D02*
X82550Y76505D01*
D11*
X76329Y86490D02*
X75694Y87125D01*
X74423Y87125D01*
X73787Y86490D01*
X73787Y83948D01*
X74423Y83312D01*
X75694Y83312D01*
X76329Y83948D01*
X77529Y83312D02*
X80071Y83312D01*
X77529Y83312D02*
X80071Y85854D01*
X80071Y86490D01*
X79436Y87125D01*
X78165Y87125D01*
X77529Y86490D01*
D10*
X75600Y34800D02*
X92600Y34800D01*
X75600Y34800D02*
X75600Y66300D01*
X92600Y66300D01*
X111600Y35300D02*
X123600Y35300D01*
X127600Y38800D01*
X127600Y63300D01*
X123600Y66300D01*
X111600Y66300D01*
X123600Y66300D01*
X107690Y63910D02*
X107690Y37940D01*
D13*
X68647Y46404D02*
X66698Y44455D01*
X66698Y40557D01*
X68647Y38608D01*
X76443Y38608D01*
X78392Y40557D01*
X78392Y44455D01*
X76443Y46404D01*
X68647Y50302D02*
X66698Y52251D01*
X66698Y56149D01*
X68647Y58098D01*
X70596Y58098D01*
X72545Y56149D01*
X72545Y54200D01*
X72545Y56149D02*
X74494Y58098D01*
X76443Y58098D01*
X78392Y56149D01*
X78392Y52251D01*
X76443Y50302D01*
X165168Y159258D02*
X165168Y170952D01*
X161270Y170952D02*
X169066Y170952D01*
X172964Y167054D02*
X176862Y170952D01*
X176862Y159258D01*
X172964Y159258D02*
X180760Y159258D01*
X150456Y94752D02*
X150456Y83058D01*
X146558Y94752D02*
X154354Y94752D01*
X158252Y83058D02*
X166048Y83058D01*
X158252Y83058D02*
X166048Y90854D01*
X166048Y92803D01*
X164099Y94752D01*
X160201Y94752D01*
X158252Y92803D01*
X203698Y46970D02*
X215392Y46970D01*
X203698Y46970D02*
X203698Y52817D01*
X205647Y54766D01*
X209545Y54766D01*
X211494Y52817D01*
X211494Y46970D01*
X211494Y50868D02*
X215392Y54766D01*
X205647Y58664D02*
X203698Y60613D01*
X203698Y64511D01*
X205647Y66460D01*
X207596Y66460D01*
X209545Y64511D01*
X211494Y66460D01*
X213443Y66460D01*
X215392Y64511D01*
X215392Y60613D01*
X213443Y58664D01*
X211494Y58664D01*
X209545Y60613D01*
X207596Y58664D01*
X205647Y58664D01*
X209545Y60613D02*
X209545Y64511D01*
X159258Y159258D02*
X159258Y170952D01*
X165105Y170952D01*
X167054Y169003D01*
X167054Y165105D01*
X165105Y163156D01*
X159258Y163156D01*
X163156Y163156D02*
X167054Y159258D01*
X170952Y161207D02*
X172901Y159258D01*
X176799Y159258D01*
X178748Y161207D01*
X178748Y169003D01*
X176799Y170952D01*
X172901Y170952D01*
X170952Y169003D01*
X170952Y167054D01*
X172901Y165105D01*
X178748Y165105D01*
X203698Y162276D02*
X215392Y162276D01*
X203698Y162276D02*
X203698Y168123D01*
X205647Y170072D01*
X209545Y170072D01*
X211494Y168123D01*
X211494Y162276D01*
X211494Y166174D02*
X215392Y170072D01*
X207596Y173970D02*
X203698Y177868D01*
X215392Y177868D01*
X215392Y173970D02*
X215392Y181766D01*
X213443Y185664D02*
X205647Y185664D01*
X203698Y187613D01*
X203698Y191511D01*
X205647Y193460D01*
X213443Y193460D01*
X215392Y191511D01*
X215392Y187613D01*
X213443Y185664D01*
X205647Y193460D01*
X184658Y113802D02*
X184658Y102108D01*
X184658Y113802D02*
X190505Y113802D01*
X192454Y111853D01*
X192454Y107955D01*
X190505Y106006D01*
X184658Y106006D01*
X188556Y106006D02*
X192454Y102108D01*
X196352Y109904D02*
X200250Y113802D01*
X200250Y102108D01*
X196352Y102108D02*
X204148Y102108D01*
X208046Y109904D02*
X211944Y113802D01*
X211944Y102108D01*
X208046Y102108D02*
X215842Y102108D01*
D14*
X38100Y161750D02*
X38100Y174450D01*
X38100Y161750D02*
X31750Y155400D01*
X19050Y155400D01*
X12700Y161750D01*
X19050Y180800D02*
X31750Y180800D01*
X38100Y174450D01*
X19050Y180800D02*
X12700Y174450D01*
X12700Y161750D01*
X31750Y155400D02*
X38100Y149050D01*
X38100Y136350D01*
X31750Y130000D01*
X19050Y130000D01*
X12700Y136350D01*
X12700Y149050D01*
X19050Y155400D01*
D15*
X53846Y147115D02*
X55753Y149022D01*
X55753Y150928D01*
X53846Y152835D01*
X44313Y152835D01*
X44313Y150928D02*
X44313Y154742D01*
X44313Y158809D02*
X55753Y158809D01*
X44313Y158809D02*
X44313Y164529D01*
X46220Y166436D01*
X50033Y166436D01*
X51940Y164529D01*
X51940Y158809D01*
X48127Y170503D02*
X44313Y174316D01*
X55753Y174316D01*
X55753Y170503D02*
X55753Y178129D01*
D14*
X12700Y93450D02*
X12700Y80750D01*
X12700Y93450D02*
X19050Y99800D01*
X31750Y99800D01*
X38100Y93450D01*
X31750Y74400D02*
X19050Y74400D01*
X12700Y80750D01*
X31750Y74400D02*
X38100Y80750D01*
X38100Y93450D01*
X19050Y99800D02*
X12700Y106150D01*
X12700Y118850D01*
X19050Y125200D01*
X31750Y125200D01*
X38100Y118850D01*
X38100Y106150D01*
X31750Y99800D01*
D15*
X17907Y44430D02*
X16000Y42523D01*
X17907Y44430D02*
X17907Y46336D01*
X16000Y48243D01*
X6467Y48243D01*
X6467Y46336D02*
X6467Y50150D01*
X6467Y54217D02*
X17907Y54217D01*
X6467Y54217D02*
X6467Y59937D01*
X8374Y61843D01*
X12187Y61843D01*
X14094Y59937D01*
X14094Y54217D01*
X17907Y65911D02*
X17907Y73537D01*
X17907Y65911D02*
X10281Y73537D01*
X8374Y73537D01*
X6467Y71631D01*
X6467Y67818D01*
X8374Y65911D01*
D14*
X240030Y83820D02*
X246380Y77470D01*
X246380Y64770D01*
X240030Y58420D01*
X227330Y58420D01*
X220980Y64770D01*
X220980Y77470D01*
X227330Y83820D01*
X246380Y115570D02*
X246380Y128270D01*
X246380Y115570D02*
X240030Y109220D01*
X227330Y109220D01*
X220980Y115570D01*
X240030Y109220D02*
X246380Y102870D01*
X246380Y90170D01*
X240030Y83820D01*
X227330Y83820D01*
X220980Y90170D01*
X220980Y102870D01*
X227330Y109220D01*
X246380Y153670D02*
X240030Y160020D01*
X246380Y153670D02*
X246380Y140970D01*
X240030Y134620D01*
X227330Y134620D01*
X220980Y140970D01*
X220980Y153670D01*
X227330Y160020D01*
X240030Y134620D02*
X246380Y128270D01*
X227330Y134620D02*
X220980Y128270D01*
X220980Y115570D01*
X246380Y191770D02*
X246380Y204470D01*
X246380Y191770D02*
X240030Y185420D01*
X227330Y185420D01*
X220980Y191770D01*
X240030Y185420D02*
X246380Y179070D01*
X246380Y166370D01*
X240030Y160020D01*
X227330Y160020D01*
X220980Y166370D01*
X220980Y179070D01*
X227330Y185420D01*
X227330Y210820D02*
X240030Y210820D01*
X246380Y204470D01*
X227330Y210820D02*
X220980Y204470D01*
X220980Y191770D01*
X246380Y52070D02*
X246380Y39370D01*
X240030Y33020D01*
X227330Y33020D01*
X220980Y39370D01*
X240030Y58420D02*
X246380Y52070D01*
X227330Y58420D02*
X220980Y52070D01*
X220980Y39370D01*
D15*
X249172Y208885D02*
X251079Y210792D01*
X251079Y212698D01*
X249172Y214605D01*
X239639Y214605D01*
X239639Y212698D02*
X239639Y216512D01*
X239639Y220579D02*
X251079Y220579D01*
X239639Y220579D02*
X239639Y226299D01*
X241546Y228206D01*
X245359Y228206D01*
X247266Y226299D01*
X247266Y220579D01*
X241546Y232273D02*
X239639Y234180D01*
X239639Y237993D01*
X241546Y239899D01*
X243453Y239899D01*
X245359Y237993D01*
X245359Y236086D01*
X245359Y237993D02*
X247266Y239899D01*
X249172Y239899D01*
X251079Y237993D01*
X251079Y234180D01*
X249172Y232273D01*
M02*
