G04 EAGLE Gerber RS-274X export*
G75*
%MOMM*%
%FSLAX34Y34*%
%LPD*%
%INSolderpaste Top*%
%IPPOS*%
%AMOC8*
5,1,8,0,0,1.08239X$1,22.5*%
G01*
%ADD10R,1.397000X0.348000*%
%ADD11R,0.700000X0.900000*%
%ADD12R,1.200000X2.500000*%
%ADD13R,1.000000X1.400000*%
%ADD14R,1.100000X1.000000*%
%ADD15R,1.000000X1.100000*%


D10*
X138160Y162750D03*
X138160Y156250D03*
X138160Y149750D03*
X138160Y136750D03*
X138160Y143250D03*
X138160Y130250D03*
X138160Y123750D03*
X138160Y117250D03*
X138160Y110750D03*
X138160Y104250D03*
X65040Y162750D03*
X65040Y156250D03*
X65040Y149750D03*
X65040Y143250D03*
X65040Y136750D03*
X65040Y130250D03*
X65040Y123750D03*
X65040Y117250D03*
X65040Y110750D03*
X65040Y104250D03*
X65040Y97750D03*
X65040Y91250D03*
X138160Y91250D03*
X138160Y97750D03*
D11*
X120800Y76200D03*
X107800Y76200D03*
X76050Y76200D03*
X89050Y76200D03*
D12*
X85100Y50800D03*
X118100Y50800D03*
D13*
X165100Y179500D03*
X155600Y201500D03*
X174600Y201500D03*
X165100Y74500D03*
X174600Y52500D03*
X155600Y52500D03*
D14*
X196850Y72000D03*
X196850Y55000D03*
D15*
X156600Y152400D03*
X173600Y152400D03*
D14*
X196850Y199000D03*
X196850Y182000D03*
D15*
X182000Y95250D03*
X199000Y95250D03*
M02*
