M48
;GenerationSoftware,Autodesk,EAGLE,9.6.0*%
;CreationDate,2020-04-12T00:17:52Z*%
FMAT,2
ICI,OFF
METRIC,TZ,000.000
T4C0.305
T3C0.610
T2C1.016
T1C3.000
%
G90
M71
T1
X2540Y2540
X2540Y22860
T2
X2540Y16810
X2540Y14270
X2540Y8710
X2540Y11250
X23368Y19812
X23368Y17272
X23368Y14732
X23368Y12192
X23368Y9652
X23368Y7112
X23368Y4572
T3
X5105Y4674
X21590Y2032
X7087Y22327
X13716Y19558
X9398Y15240
X9144Y12446
X4597Y10109
X15748Y9652
X10160Y10160
X13208Y18034
X11989Y10973
T4
X16256Y10668
X16002Y3048
X18288Y8128
X10922Y21082
X21336Y21844
X14541Y7429
M30