G04 EAGLE Gerber RS-274X export*
G75*
%MOMM*%
%FSLAX34Y34*%
%LPD*%
%INSilkscreen Top*%
%IPPOS*%
%AMOC8*
5,1,8,0,0,1.08239X$1,22.5*%
G01*
%ADD10C,0.025400*%
%ADD11C,0.254000*%
%ADD12C,0.127000*%
%ADD13C,0.203200*%
%ADD14C,0.101600*%


D10*
X302128Y54714D02*
X300664Y56470D01*
X300665Y56470D02*
X301012Y56771D01*
X301352Y57080D01*
X301685Y57397D01*
X302010Y57722D01*
X302327Y58054D01*
X302636Y58394D01*
X302937Y58742D01*
X303230Y59096D01*
X303513Y59458D01*
X303788Y59826D01*
X304055Y60201D01*
X304312Y60582D01*
X304560Y60969D01*
X304798Y61361D01*
X305027Y61760D01*
X305247Y62164D01*
X305457Y62572D01*
X305657Y62986D01*
X305847Y63405D01*
X306026Y63828D01*
X306196Y64255D01*
X306355Y64686D01*
X306504Y65121D01*
X306643Y65559D01*
X306771Y66000D01*
X306888Y66445D01*
X306995Y66892D01*
X307091Y67341D01*
X307176Y67793D01*
X307250Y68246D01*
X307314Y68702D01*
X307366Y69158D01*
X307408Y69616D01*
X307438Y70074D01*
X307458Y70534D01*
X307467Y70993D01*
X309752Y70994D01*
X309753Y70993D01*
X309743Y70478D01*
X309722Y69963D01*
X309688Y69449D01*
X309642Y68936D01*
X309583Y68424D01*
X309512Y67914D01*
X309429Y67405D01*
X309334Y66899D01*
X309226Y66395D01*
X309107Y65894D01*
X308976Y65396D01*
X308832Y64901D01*
X308677Y64410D01*
X308510Y63922D01*
X308331Y63439D01*
X308141Y62960D01*
X307940Y62486D01*
X307727Y62017D01*
X307503Y61553D01*
X307268Y61094D01*
X307021Y60642D01*
X306765Y60195D01*
X306497Y59755D01*
X306219Y59321D01*
X305931Y58894D01*
X305632Y58474D01*
X305323Y58062D01*
X305005Y57656D01*
X304677Y57259D01*
X304340Y56870D01*
X303993Y56489D01*
X303637Y56116D01*
X303273Y55752D01*
X302900Y55397D01*
X302518Y55051D01*
X302128Y54714D01*
X301974Y54898D01*
X302360Y55231D01*
X302737Y55573D01*
X303106Y55925D01*
X303466Y56285D01*
X303818Y56653D01*
X304161Y57030D01*
X304494Y57415D01*
X304819Y57808D01*
X305133Y58208D01*
X305438Y58616D01*
X305734Y59031D01*
X306019Y59453D01*
X306294Y59882D01*
X306558Y60318D01*
X306812Y60759D01*
X307055Y61207D01*
X307288Y61660D01*
X307509Y62118D01*
X307720Y62582D01*
X307919Y63051D01*
X308107Y63525D01*
X308284Y64002D01*
X308449Y64484D01*
X308602Y64970D01*
X308744Y65459D01*
X308874Y65952D01*
X308992Y66447D01*
X309098Y66945D01*
X309193Y67446D01*
X309275Y67949D01*
X309345Y68453D01*
X309403Y68959D01*
X309448Y69467D01*
X309482Y69975D01*
X309503Y70484D01*
X309513Y70993D01*
X309273Y70993D01*
X309264Y70490D01*
X309242Y69987D01*
X309209Y69484D01*
X309164Y68983D01*
X309107Y68482D01*
X309037Y67984D01*
X308956Y67487D01*
X308863Y66992D01*
X308758Y66499D01*
X308641Y66010D01*
X308513Y65523D01*
X308373Y65039D01*
X308221Y64559D01*
X308058Y64083D01*
X307883Y63610D01*
X307697Y63142D01*
X307500Y62679D01*
X307292Y62220D01*
X307073Y61767D01*
X306843Y61319D01*
X306603Y60876D01*
X306352Y60440D01*
X306090Y60010D01*
X305818Y59586D01*
X305537Y59168D01*
X305245Y58758D01*
X304943Y58355D01*
X304632Y57959D01*
X304312Y57570D01*
X303982Y57190D01*
X303643Y56817D01*
X303296Y56453D01*
X302939Y56097D01*
X302575Y55750D01*
X302202Y55412D01*
X301821Y55082D01*
X301667Y55267D01*
X302044Y55592D01*
X302412Y55927D01*
X302773Y56270D01*
X303125Y56622D01*
X303468Y56982D01*
X303803Y57350D01*
X304129Y57726D01*
X304446Y58110D01*
X304753Y58501D01*
X305051Y58900D01*
X305340Y59306D01*
X305618Y59718D01*
X305887Y60137D01*
X306145Y60562D01*
X306393Y60994D01*
X306631Y61431D01*
X306858Y61874D01*
X307075Y62322D01*
X307280Y62775D01*
X307475Y63233D01*
X307659Y63696D01*
X307831Y64163D01*
X307993Y64634D01*
X308143Y65108D01*
X308281Y65586D01*
X308408Y66067D01*
X308524Y66551D01*
X308627Y67038D01*
X308720Y67527D01*
X308800Y68019D01*
X308868Y68511D01*
X308925Y69006D01*
X308970Y69502D01*
X309003Y69998D01*
X309024Y70496D01*
X309033Y70993D01*
X308793Y70993D01*
X308784Y70501D01*
X308763Y70010D01*
X308730Y69519D01*
X308686Y69029D01*
X308630Y68541D01*
X308562Y68053D01*
X308483Y67568D01*
X308392Y67085D01*
X308289Y66604D01*
X308175Y66125D01*
X308050Y65650D01*
X307913Y65177D01*
X307765Y64708D01*
X307605Y64243D01*
X307435Y63782D01*
X307253Y63324D01*
X307061Y62872D01*
X306857Y62424D01*
X306644Y61981D01*
X306419Y61543D01*
X306184Y61111D01*
X305939Y60685D01*
X305683Y60265D01*
X305418Y59850D01*
X305143Y59443D01*
X304858Y59042D01*
X304563Y58648D01*
X304259Y58261D01*
X303946Y57882D01*
X303624Y57510D01*
X303293Y57146D01*
X302954Y56790D01*
X302606Y56443D01*
X302250Y56103D01*
X301886Y55773D01*
X301513Y55451D01*
X301360Y55636D01*
X301727Y55953D01*
X302087Y56280D01*
X302439Y56615D01*
X302783Y56959D01*
X303119Y57310D01*
X303445Y57670D01*
X303764Y58037D01*
X304073Y58412D01*
X304373Y58795D01*
X304664Y59184D01*
X304946Y59580D01*
X305218Y59983D01*
X305480Y60392D01*
X305732Y60807D01*
X305975Y61229D01*
X306207Y61656D01*
X306429Y62088D01*
X306640Y62526D01*
X306841Y62968D01*
X307031Y63416D01*
X307211Y63867D01*
X307379Y64323D01*
X307537Y64783D01*
X307683Y65246D01*
X307818Y65713D01*
X307942Y66183D01*
X308055Y66656D01*
X308157Y67131D01*
X308246Y67609D01*
X308325Y68088D01*
X308392Y68570D01*
X308447Y69053D01*
X308491Y69537D01*
X308523Y70022D01*
X308544Y70507D01*
X308553Y70993D01*
X308313Y70993D01*
X308304Y70513D01*
X308283Y70033D01*
X308252Y69554D01*
X308208Y69076D01*
X308154Y68599D01*
X308087Y68123D01*
X308010Y67649D01*
X307921Y67178D01*
X307821Y66708D01*
X307709Y66241D01*
X307587Y65777D01*
X307453Y65315D01*
X307308Y64858D01*
X307153Y64403D01*
X306986Y63953D01*
X306809Y63507D01*
X306621Y63065D01*
X306423Y62627D01*
X306214Y62195D01*
X305995Y61768D01*
X305765Y61346D01*
X305526Y60930D01*
X305277Y60519D01*
X305018Y60115D01*
X304749Y59717D01*
X304471Y59326D01*
X304183Y58941D01*
X303887Y58563D01*
X303581Y58193D01*
X303267Y57830D01*
X302944Y57475D01*
X302612Y57127D01*
X302273Y56788D01*
X301925Y56457D01*
X301569Y56134D01*
X301206Y55820D01*
X301053Y56004D01*
X301411Y56315D01*
X301762Y56633D01*
X302106Y56961D01*
X302441Y57296D01*
X302769Y57639D01*
X303088Y57990D01*
X303398Y58349D01*
X303700Y58715D01*
X303993Y59088D01*
X304277Y59468D01*
X304552Y59854D01*
X304817Y60247D01*
X305073Y60647D01*
X305320Y61052D01*
X305556Y61463D01*
X305783Y61880D01*
X305999Y62302D01*
X306205Y62729D01*
X306401Y63161D01*
X306587Y63598D01*
X306762Y64039D01*
X306927Y64483D01*
X307080Y64932D01*
X307223Y65384D01*
X307355Y65840D01*
X307477Y66299D01*
X307587Y66760D01*
X307686Y67224D01*
X307773Y67690D01*
X307850Y68158D01*
X307915Y68628D01*
X307970Y69099D01*
X308012Y69572D01*
X308044Y70045D01*
X308064Y70519D01*
X308073Y70993D01*
X307833Y70993D01*
X307824Y70525D01*
X307804Y70057D01*
X307773Y69589D01*
X307731Y69123D01*
X307677Y68657D01*
X307613Y68193D01*
X307537Y67731D01*
X307450Y67270D01*
X307352Y66812D01*
X307244Y66356D01*
X307124Y65904D01*
X306993Y65454D01*
X306852Y65007D01*
X306700Y64564D01*
X306538Y64124D01*
X306365Y63689D01*
X306182Y63258D01*
X305988Y62831D01*
X305784Y62409D01*
X305570Y61992D01*
X305347Y61581D01*
X305113Y61175D01*
X304870Y60774D01*
X304617Y60380D01*
X304355Y59991D01*
X304084Y59610D01*
X303803Y59234D01*
X303514Y58866D01*
X303216Y58504D01*
X302909Y58150D01*
X302594Y57804D01*
X302271Y57464D01*
X301939Y57133D01*
X301600Y56810D01*
X301253Y56495D01*
X300899Y56189D01*
X300745Y56373D01*
X301095Y56676D01*
X301438Y56987D01*
X301773Y57306D01*
X302100Y57633D01*
X302419Y57968D01*
X302730Y58310D01*
X303033Y58660D01*
X303327Y59017D01*
X303613Y59381D01*
X303890Y59751D01*
X304158Y60129D01*
X304417Y60512D01*
X304667Y60902D01*
X304907Y61297D01*
X305137Y61698D01*
X305358Y62105D01*
X305569Y62516D01*
X305771Y62933D01*
X305962Y63354D01*
X306143Y63780D01*
X306314Y64210D01*
X306474Y64644D01*
X306624Y65082D01*
X306764Y65523D01*
X306892Y65967D01*
X307011Y66414D01*
X307118Y66864D01*
X307215Y67317D01*
X307300Y67771D01*
X307375Y68228D01*
X307439Y68686D01*
X307492Y69146D01*
X307534Y69607D01*
X307564Y70068D01*
X307584Y70531D01*
X307593Y70993D01*
X309752Y71246D02*
X307466Y71246D01*
X307467Y71247D02*
X307458Y71712D01*
X307438Y72177D01*
X307407Y72641D01*
X307364Y73104D01*
X307310Y73566D01*
X307245Y74027D01*
X307169Y74486D01*
X307082Y74943D01*
X306984Y75398D01*
X306874Y75850D01*
X306754Y76300D01*
X306623Y76746D01*
X306481Y77189D01*
X306328Y77629D01*
X306165Y78064D01*
X305991Y78496D01*
X305807Y78923D01*
X305613Y79346D01*
X305408Y79764D01*
X305193Y80177D01*
X304968Y80584D01*
X304734Y80986D01*
X304490Y81382D01*
X304236Y81772D01*
X303973Y82156D01*
X303700Y82533D01*
X303419Y82903D01*
X303129Y83267D01*
X302830Y83623D01*
X302522Y83972D01*
X302206Y84314D01*
X301882Y84648D01*
X301549Y84973D01*
X301209Y85291D01*
X300862Y85600D01*
X300507Y85901D01*
X300145Y86193D01*
X299775Y86476D01*
X299399Y86750D01*
X299017Y87015D01*
X298628Y87271D01*
X298233Y87517D01*
X297832Y87753D01*
X297426Y87980D01*
X298501Y89997D01*
X298502Y89997D01*
X298957Y89743D01*
X299407Y89479D01*
X299849Y89203D01*
X300285Y88917D01*
X300714Y88620D01*
X301136Y88314D01*
X301550Y87996D01*
X301956Y87669D01*
X302354Y87332D01*
X302743Y86986D01*
X303125Y86630D01*
X303497Y86265D01*
X303860Y85891D01*
X304215Y85509D01*
X304560Y85118D01*
X304895Y84718D01*
X305220Y84311D01*
X305536Y83896D01*
X305841Y83473D01*
X306136Y83043D01*
X306420Y82606D01*
X306694Y82162D01*
X306957Y81712D01*
X307209Y81255D01*
X307449Y80793D01*
X307679Y80324D01*
X307897Y79851D01*
X308103Y79372D01*
X308298Y78888D01*
X308480Y78400D01*
X308651Y77907D01*
X308810Y77410D01*
X308957Y76910D01*
X309092Y76406D01*
X309214Y75899D01*
X309324Y75390D01*
X309421Y74877D01*
X309506Y74363D01*
X309579Y73846D01*
X309639Y73329D01*
X309686Y72809D01*
X309721Y72289D01*
X309743Y71768D01*
X309753Y71247D01*
X309513Y71247D01*
X309503Y71762D01*
X309481Y72277D01*
X309447Y72792D01*
X309400Y73305D01*
X309341Y73817D01*
X309269Y74328D01*
X309185Y74836D01*
X309088Y75343D01*
X308980Y75847D01*
X308859Y76348D01*
X308726Y76846D01*
X308581Y77341D01*
X308423Y77832D01*
X308254Y78319D01*
X308074Y78801D01*
X307881Y79280D01*
X307677Y79753D01*
X307462Y80222D01*
X307235Y80685D01*
X306997Y81142D01*
X306748Y81593D01*
X306488Y82039D01*
X306218Y82477D01*
X305937Y82910D01*
X305645Y83335D01*
X305343Y83753D01*
X305031Y84163D01*
X304709Y84566D01*
X304378Y84961D01*
X304037Y85347D01*
X303687Y85726D01*
X303327Y86095D01*
X302959Y86456D01*
X302582Y86808D01*
X302197Y87151D01*
X301803Y87484D01*
X301402Y87807D01*
X300993Y88121D01*
X300576Y88424D01*
X300152Y88717D01*
X299721Y89000D01*
X299283Y89273D01*
X298839Y89534D01*
X298389Y89785D01*
X298276Y89574D01*
X298721Y89326D01*
X299160Y89067D01*
X299593Y88798D01*
X300019Y88518D01*
X300438Y88228D01*
X300850Y87928D01*
X301254Y87618D01*
X301651Y87298D01*
X302040Y86969D01*
X302421Y86630D01*
X302794Y86282D01*
X303158Y85926D01*
X303513Y85560D01*
X303859Y85186D01*
X304196Y84804D01*
X304524Y84414D01*
X304842Y84015D01*
X305150Y83610D01*
X305449Y83196D01*
X305737Y82776D01*
X306015Y82349D01*
X306283Y81915D01*
X306539Y81475D01*
X306786Y81029D01*
X307021Y80577D01*
X307245Y80119D01*
X307458Y79656D01*
X307660Y79188D01*
X307850Y78715D01*
X308029Y78238D01*
X308196Y77756D01*
X308351Y77271D01*
X308494Y76782D01*
X308626Y76289D01*
X308746Y75794D01*
X308853Y75296D01*
X308948Y74795D01*
X309032Y74292D01*
X309103Y73788D01*
X309161Y73281D01*
X309208Y72774D01*
X309242Y72265D01*
X309263Y71756D01*
X309273Y71247D01*
X309033Y71247D01*
X309023Y71750D01*
X309002Y72254D01*
X308968Y72756D01*
X308922Y73258D01*
X308864Y73758D01*
X308794Y74257D01*
X308712Y74754D01*
X308618Y75249D01*
X308511Y75741D01*
X308393Y76231D01*
X308263Y76718D01*
X308121Y77201D01*
X307968Y77681D01*
X307803Y78157D01*
X307626Y78629D01*
X307438Y79096D01*
X307239Y79558D01*
X307028Y80016D01*
X306806Y80469D01*
X306574Y80915D01*
X306331Y81357D01*
X306077Y81792D01*
X305812Y82220D01*
X305538Y82643D01*
X305253Y83058D01*
X304958Y83466D01*
X304653Y83868D01*
X304339Y84261D01*
X304015Y84647D01*
X303682Y85025D01*
X303339Y85395D01*
X302988Y85756D01*
X302628Y86108D01*
X302260Y86452D01*
X301884Y86787D01*
X301499Y87112D01*
X301107Y87428D01*
X300707Y87735D01*
X300300Y88031D01*
X299886Y88318D01*
X299465Y88595D01*
X299037Y88861D01*
X298603Y89117D01*
X298163Y89362D01*
X298050Y89150D01*
X298485Y88908D01*
X298914Y88655D01*
X299336Y88392D01*
X299753Y88118D01*
X300162Y87835D01*
X300564Y87542D01*
X300959Y87239D01*
X301347Y86927D01*
X301727Y86605D01*
X302099Y86274D01*
X302463Y85934D01*
X302819Y85586D01*
X303166Y85229D01*
X303504Y84864D01*
X303833Y84490D01*
X304153Y84109D01*
X304464Y83720D01*
X304765Y83323D01*
X305056Y82920D01*
X305338Y82509D01*
X305610Y82092D01*
X305871Y81668D01*
X306122Y81238D01*
X306362Y80802D01*
X306592Y80361D01*
X306811Y79913D01*
X307019Y79461D01*
X307216Y79004D01*
X307402Y78542D01*
X307577Y78076D01*
X307740Y77606D01*
X307892Y77131D01*
X308032Y76654D01*
X308160Y76173D01*
X308277Y75689D01*
X308382Y75202D01*
X308476Y74713D01*
X308557Y74222D01*
X308626Y73729D01*
X308684Y73234D01*
X308729Y72739D01*
X308762Y72242D01*
X308783Y71744D01*
X308793Y71247D01*
X308553Y71247D01*
X308544Y71738D01*
X308523Y72230D01*
X308490Y72721D01*
X308445Y73211D01*
X308388Y73699D01*
X308319Y74187D01*
X308239Y74672D01*
X308147Y75155D01*
X308043Y75636D01*
X307928Y76114D01*
X307801Y76590D01*
X307662Y77062D01*
X307512Y77530D01*
X307351Y77995D01*
X307178Y78456D01*
X306994Y78912D01*
X306800Y79364D01*
X306594Y79811D01*
X306378Y80253D01*
X306151Y80689D01*
X305913Y81120D01*
X305665Y81545D01*
X305407Y81963D01*
X305139Y82376D01*
X304860Y82781D01*
X304572Y83180D01*
X304275Y83572D01*
X303968Y83956D01*
X303651Y84333D01*
X303326Y84702D01*
X302992Y85063D01*
X302649Y85416D01*
X302298Y85761D01*
X301938Y86096D01*
X301570Y86423D01*
X301195Y86741D01*
X300812Y87050D01*
X300422Y87349D01*
X300024Y87639D01*
X299619Y87919D01*
X299208Y88189D01*
X298791Y88449D01*
X298367Y88699D01*
X297937Y88938D01*
X297824Y88726D01*
X298249Y88490D01*
X298667Y88243D01*
X299080Y87986D01*
X299486Y87719D01*
X299886Y87442D01*
X300279Y87156D01*
X300664Y86860D01*
X301043Y86555D01*
X301414Y86241D01*
X301777Y85918D01*
X302132Y85587D01*
X302479Y85246D01*
X302818Y84898D01*
X303148Y84541D01*
X303470Y84176D01*
X303782Y83804D01*
X304086Y83424D01*
X304380Y83037D01*
X304664Y82643D01*
X304939Y82242D01*
X305204Y81835D01*
X305459Y81421D01*
X305704Y81001D01*
X305939Y80576D01*
X306163Y80145D01*
X306377Y79708D01*
X306580Y79266D01*
X306773Y78820D01*
X306954Y78369D01*
X307125Y77914D01*
X307284Y77455D01*
X307432Y76992D01*
X307569Y76526D01*
X307695Y76056D01*
X307809Y75583D01*
X307912Y75108D01*
X308003Y74631D01*
X308082Y74151D01*
X308150Y73670D01*
X308206Y73187D01*
X308250Y72703D01*
X308283Y72218D01*
X308304Y71733D01*
X308313Y71247D01*
X308073Y71247D01*
X308064Y71727D01*
X308043Y72206D01*
X308011Y72685D01*
X307967Y73164D01*
X307912Y73641D01*
X307845Y74116D01*
X307766Y74590D01*
X307676Y75061D01*
X307575Y75531D01*
X307462Y75998D01*
X307338Y76461D01*
X307203Y76922D01*
X307056Y77379D01*
X306899Y77833D01*
X306730Y78283D01*
X306551Y78728D01*
X306361Y79169D01*
X306160Y79605D01*
X305949Y80037D01*
X305727Y80463D01*
X305496Y80883D01*
X305254Y81298D01*
X305001Y81706D01*
X304740Y82109D01*
X304468Y82505D01*
X304187Y82894D01*
X303896Y83277D01*
X303597Y83652D01*
X303288Y84020D01*
X302971Y84380D01*
X302644Y84732D01*
X302310Y85076D01*
X301967Y85413D01*
X301616Y85740D01*
X301257Y86059D01*
X300891Y86370D01*
X300517Y86671D01*
X300136Y86963D01*
X299748Y87246D01*
X299353Y87519D01*
X298952Y87783D01*
X298544Y88037D01*
X298131Y88281D01*
X297711Y88515D01*
X297598Y88303D01*
X298012Y88072D01*
X298421Y87831D01*
X298824Y87580D01*
X299220Y87320D01*
X299610Y87050D01*
X299993Y86770D01*
X300369Y86482D01*
X300739Y86184D01*
X301101Y85878D01*
X301455Y85562D01*
X301802Y85239D01*
X302140Y84907D01*
X302471Y84566D01*
X302793Y84218D01*
X303107Y83863D01*
X303411Y83499D01*
X303707Y83129D01*
X303994Y82751D01*
X304272Y82367D01*
X304540Y81975D01*
X304799Y81578D01*
X305048Y81174D01*
X305287Y80765D01*
X305516Y80349D01*
X305735Y79929D01*
X305943Y79503D01*
X306142Y79072D01*
X306329Y78636D01*
X306507Y78196D01*
X306673Y77752D01*
X306828Y77304D01*
X306973Y76852D01*
X307107Y76397D01*
X307229Y75939D01*
X307341Y75478D01*
X307441Y75015D01*
X307530Y74549D01*
X307607Y74081D01*
X307673Y73611D01*
X307728Y73140D01*
X307772Y72668D01*
X307803Y72195D01*
X307824Y71721D01*
X307833Y71247D01*
X307593Y71247D01*
X307584Y71715D01*
X307564Y72183D01*
X307532Y72650D01*
X307489Y73117D01*
X307435Y73582D01*
X307370Y74046D01*
X307293Y74508D01*
X307205Y74968D01*
X307106Y75426D01*
X306996Y75881D01*
X306875Y76333D01*
X306743Y76783D01*
X306601Y77229D01*
X306447Y77671D01*
X306283Y78110D01*
X306108Y78544D01*
X305922Y78974D01*
X305727Y79400D01*
X305520Y79821D01*
X305304Y80236D01*
X305078Y80646D01*
X304842Y81051D01*
X304596Y81449D01*
X304341Y81842D01*
X304076Y82228D01*
X303802Y82608D01*
X303518Y82981D01*
X303226Y83347D01*
X302925Y83706D01*
X302615Y84057D01*
X302297Y84401D01*
X301971Y84737D01*
X301636Y85065D01*
X301294Y85384D01*
X300944Y85696D01*
X300587Y85999D01*
X300222Y86292D01*
X299850Y86578D01*
X299472Y86853D01*
X299087Y87120D01*
X298695Y87377D01*
X298298Y87625D01*
X297894Y87863D01*
X297485Y88091D01*
X266828Y70994D02*
X269114Y70994D01*
X269113Y70993D02*
X269122Y70525D01*
X269143Y70057D01*
X269174Y69589D01*
X269217Y69122D01*
X269272Y68657D01*
X269338Y68193D01*
X269415Y67731D01*
X269503Y67271D01*
X269603Y66813D01*
X269714Y66357D01*
X269836Y65905D01*
X269969Y65456D01*
X270113Y65010D01*
X270267Y64567D01*
X270433Y64129D01*
X270609Y63695D01*
X270796Y63265D01*
X270993Y62840D01*
X271200Y62420D01*
X271418Y62005D01*
X271646Y61595D01*
X271883Y61191D01*
X272131Y60793D01*
X272388Y60402D01*
X272655Y60016D01*
X272931Y59637D01*
X273216Y59266D01*
X273510Y58901D01*
X273813Y58543D01*
X274125Y58193D01*
X274445Y57851D01*
X274773Y57517D01*
X275109Y57191D01*
X275454Y56873D01*
X275806Y56563D01*
X274329Y54819D01*
X274329Y54818D01*
X273934Y55165D01*
X273548Y55521D01*
X273171Y55886D01*
X272802Y56261D01*
X272443Y56644D01*
X272094Y57037D01*
X271754Y57437D01*
X271424Y57846D01*
X271104Y58263D01*
X270795Y58687D01*
X270496Y59119D01*
X270207Y59558D01*
X269930Y60004D01*
X269663Y60457D01*
X269408Y60916D01*
X269164Y61381D01*
X268931Y61852D01*
X268710Y62329D01*
X268501Y62811D01*
X268303Y63298D01*
X268118Y63789D01*
X267944Y64285D01*
X267783Y64785D01*
X267634Y65289D01*
X267498Y65796D01*
X267374Y66307D01*
X267262Y66820D01*
X267163Y67336D01*
X267077Y67854D01*
X267003Y68374D01*
X266943Y68896D01*
X266895Y69419D01*
X266859Y69943D01*
X266837Y70468D01*
X266827Y70993D01*
X267067Y70993D01*
X267077Y70474D01*
X267099Y69955D01*
X267134Y69437D01*
X267181Y68920D01*
X267242Y68404D01*
X267314Y67890D01*
X267400Y67377D01*
X267497Y66867D01*
X267608Y66360D01*
X267730Y65855D01*
X267865Y65353D01*
X268013Y64855D01*
X268172Y64361D01*
X268343Y63871D01*
X268527Y63385D01*
X268722Y62904D01*
X268929Y62427D01*
X269147Y61956D01*
X269377Y61490D01*
X269619Y61030D01*
X269871Y60577D01*
X270135Y60129D01*
X270409Y59688D01*
X270694Y59254D01*
X270990Y58827D01*
X271296Y58407D01*
X271612Y57995D01*
X271938Y57591D01*
X272274Y57195D01*
X272620Y56807D01*
X272975Y56428D01*
X273339Y56058D01*
X273712Y55696D01*
X274094Y55344D01*
X274484Y55001D01*
X274639Y55185D01*
X274253Y55523D01*
X273876Y55871D01*
X273507Y56229D01*
X273147Y56595D01*
X272796Y56970D01*
X272455Y57353D01*
X272123Y57745D01*
X271800Y58144D01*
X271488Y58551D01*
X271185Y58966D01*
X270893Y59388D01*
X270611Y59818D01*
X270340Y60254D01*
X270079Y60696D01*
X269830Y61145D01*
X269591Y61599D01*
X269364Y62060D01*
X269148Y62525D01*
X268943Y62996D01*
X268750Y63472D01*
X268569Y63953D01*
X268400Y64437D01*
X268242Y64926D01*
X268097Y65418D01*
X267963Y65914D01*
X267842Y66413D01*
X267733Y66915D01*
X267636Y67419D01*
X267552Y67925D01*
X267480Y68434D01*
X267420Y68944D01*
X267373Y69455D01*
X267339Y69967D01*
X267317Y70480D01*
X267307Y70993D01*
X267547Y70993D01*
X267557Y70486D01*
X267578Y69979D01*
X267613Y69473D01*
X267659Y68967D01*
X267718Y68463D01*
X267789Y67961D01*
X267872Y67460D01*
X267968Y66962D01*
X268076Y66466D01*
X268196Y65973D01*
X268328Y65483D01*
X268472Y64996D01*
X268627Y64513D01*
X268795Y64034D01*
X268974Y63559D01*
X269165Y63089D01*
X269367Y62624D01*
X269580Y62163D01*
X269805Y61708D01*
X270041Y61259D01*
X270288Y60815D01*
X270545Y60378D01*
X270813Y59947D01*
X271092Y59523D01*
X271380Y59106D01*
X271679Y58696D01*
X271988Y58293D01*
X272307Y57898D01*
X272635Y57511D01*
X272973Y57132D01*
X273320Y56762D01*
X273675Y56400D01*
X274040Y56047D01*
X274413Y55703D01*
X274794Y55368D01*
X274949Y55551D01*
X274572Y55882D01*
X274204Y56222D01*
X273844Y56571D01*
X273492Y56929D01*
X273149Y57295D01*
X272816Y57669D01*
X272491Y58052D01*
X272176Y58442D01*
X271871Y58840D01*
X271576Y59245D01*
X271290Y59658D01*
X271015Y60077D01*
X270750Y60503D01*
X270496Y60935D01*
X270252Y61373D01*
X270019Y61817D01*
X269797Y62267D01*
X269586Y62722D01*
X269386Y63182D01*
X269198Y63647D01*
X269020Y64116D01*
X268855Y64589D01*
X268701Y65067D01*
X268559Y65548D01*
X268428Y66032D01*
X268310Y66519D01*
X268203Y67009D01*
X268109Y67502D01*
X268026Y67996D01*
X267956Y68493D01*
X267898Y68991D01*
X267852Y69491D01*
X267818Y69991D01*
X267797Y70492D01*
X267787Y70993D01*
X268027Y70993D01*
X268037Y70498D01*
X268058Y70003D01*
X268091Y69508D01*
X268137Y69015D01*
X268194Y68523D01*
X268264Y68032D01*
X268345Y67543D01*
X268439Y67057D01*
X268544Y66572D01*
X268661Y66091D01*
X268790Y65612D01*
X268930Y65137D01*
X269083Y64665D01*
X269246Y64198D01*
X269421Y63734D01*
X269607Y63275D01*
X269805Y62820D01*
X270013Y62371D01*
X270233Y61926D01*
X270463Y61488D01*
X270704Y61054D01*
X270955Y60627D01*
X271217Y60207D01*
X271489Y59792D01*
X271771Y59385D01*
X272063Y58984D01*
X272365Y58591D01*
X272676Y58206D01*
X272996Y57828D01*
X273326Y57458D01*
X273664Y57096D01*
X274012Y56742D01*
X274368Y56397D01*
X274732Y56061D01*
X275104Y55734D01*
X275259Y55917D01*
X274891Y56241D01*
X274532Y56573D01*
X274180Y56913D01*
X273837Y57263D01*
X273502Y57620D01*
X273177Y57986D01*
X272860Y58359D01*
X272553Y58740D01*
X272255Y59129D01*
X271966Y59524D01*
X271688Y59927D01*
X271419Y60336D01*
X271160Y60752D01*
X270912Y61174D01*
X270674Y61602D01*
X270447Y62035D01*
X270230Y62474D01*
X270024Y62919D01*
X269829Y63368D01*
X269645Y63821D01*
X269472Y64279D01*
X269310Y64741D01*
X269160Y65207D01*
X269021Y65677D01*
X268894Y66150D01*
X268778Y66625D01*
X268674Y67104D01*
X268582Y67585D01*
X268501Y68068D01*
X268432Y68552D01*
X268375Y69039D01*
X268331Y69526D01*
X268298Y70015D01*
X268276Y70504D01*
X268267Y70993D01*
X268507Y70993D01*
X268516Y70510D01*
X268537Y70027D01*
X268570Y69544D01*
X268614Y69062D01*
X268670Y68582D01*
X268738Y68103D01*
X268818Y67626D01*
X268909Y67151D01*
X269012Y66679D01*
X269126Y66209D01*
X269252Y65742D01*
X269389Y65278D01*
X269538Y64818D01*
X269697Y64361D01*
X269868Y63909D01*
X270050Y63460D01*
X270243Y63017D01*
X270446Y62578D01*
X270660Y62144D01*
X270885Y61716D01*
X271120Y61293D01*
X271365Y60877D01*
X271621Y60466D01*
X271886Y60062D01*
X272162Y59664D01*
X272446Y59273D01*
X272741Y58889D01*
X273044Y58513D01*
X273357Y58144D01*
X273679Y57783D01*
X274009Y57430D01*
X274348Y57085D01*
X274695Y56748D01*
X275051Y56420D01*
X275414Y56101D01*
X275569Y56284D01*
X275210Y56599D01*
X274859Y56923D01*
X274516Y57256D01*
X274182Y57597D01*
X273855Y57945D01*
X273538Y58302D01*
X273229Y58667D01*
X272929Y59038D01*
X272638Y59417D01*
X272357Y59803D01*
X272085Y60196D01*
X271823Y60596D01*
X271571Y61001D01*
X271328Y61413D01*
X271096Y61830D01*
X270874Y62253D01*
X270663Y62682D01*
X270462Y63115D01*
X270271Y63553D01*
X270092Y63996D01*
X269923Y64443D01*
X269765Y64894D01*
X269619Y65348D01*
X269483Y65806D01*
X269359Y66268D01*
X269246Y66732D01*
X269144Y67199D01*
X269054Y67668D01*
X268976Y68139D01*
X268909Y68612D01*
X268853Y69086D01*
X268809Y69562D01*
X268777Y70039D01*
X268756Y70516D01*
X268747Y70993D01*
X268987Y70993D01*
X268996Y70522D01*
X269017Y70050D01*
X269049Y69580D01*
X269092Y69110D01*
X269147Y68641D01*
X269213Y68174D01*
X269291Y67709D01*
X269380Y67246D01*
X269480Y66785D01*
X269592Y66327D01*
X269714Y65871D01*
X269848Y65419D01*
X269993Y64970D01*
X270149Y64524D01*
X270315Y64083D01*
X270493Y63646D01*
X270681Y63213D01*
X270879Y62785D01*
X271088Y62362D01*
X271307Y61945D01*
X271536Y61532D01*
X271776Y61126D01*
X272025Y60725D01*
X272284Y60331D01*
X272552Y59943D01*
X272830Y59562D01*
X273117Y59187D01*
X273413Y58820D01*
X273718Y58460D01*
X274032Y58108D01*
X274354Y57763D01*
X274685Y57427D01*
X275023Y57099D01*
X275370Y56779D01*
X275724Y56467D01*
X277531Y89692D02*
X278666Y87707D01*
X278665Y87708D02*
X278267Y87470D01*
X277875Y87224D01*
X277490Y86967D01*
X277110Y86702D01*
X276737Y86428D01*
X276371Y86144D01*
X276012Y85852D01*
X275660Y85551D01*
X275315Y85242D01*
X274978Y84925D01*
X274648Y84599D01*
X274327Y84266D01*
X274013Y83925D01*
X273708Y83576D01*
X273412Y83221D01*
X273124Y82858D01*
X272845Y82488D01*
X272575Y82112D01*
X272314Y81729D01*
X272063Y81340D01*
X271821Y80946D01*
X271588Y80545D01*
X271366Y80139D01*
X271153Y79728D01*
X270950Y79311D01*
X270757Y78890D01*
X270575Y78465D01*
X270403Y78035D01*
X270241Y77601D01*
X270090Y77163D01*
X269949Y76722D01*
X269819Y76277D01*
X269700Y75830D01*
X269592Y75380D01*
X269494Y74927D01*
X269408Y74472D01*
X269333Y74015D01*
X269268Y73556D01*
X269215Y73096D01*
X269173Y72635D01*
X269142Y72173D01*
X269122Y71710D01*
X269113Y71247D01*
X266828Y71247D01*
X266827Y71247D01*
X266837Y71766D01*
X266859Y72285D01*
X266893Y72803D01*
X266940Y73320D01*
X266999Y73835D01*
X267071Y74349D01*
X267155Y74861D01*
X267252Y75371D01*
X267361Y75879D01*
X267482Y76383D01*
X267615Y76885D01*
X267761Y77383D01*
X267918Y77878D01*
X268088Y78368D01*
X268269Y78855D01*
X268462Y79337D01*
X268666Y79814D01*
X268882Y80285D01*
X269109Y80752D01*
X269348Y81213D01*
X269597Y81668D01*
X269858Y82117D01*
X270129Y82559D01*
X270411Y82995D01*
X270703Y83424D01*
X271006Y83846D01*
X271319Y84260D01*
X271641Y84666D01*
X271974Y85065D01*
X272316Y85456D01*
X272667Y85838D01*
X273027Y86211D01*
X273397Y86576D01*
X273775Y86931D01*
X274161Y87278D01*
X274556Y87615D01*
X274959Y87942D01*
X275369Y88259D01*
X275788Y88567D01*
X276213Y88864D01*
X276646Y89151D01*
X277085Y89427D01*
X277531Y89692D01*
X277650Y89484D01*
X277209Y89222D01*
X276775Y88948D01*
X276347Y88665D01*
X275926Y88371D01*
X275513Y88067D01*
X275107Y87753D01*
X274709Y87429D01*
X274318Y87096D01*
X273936Y86754D01*
X273563Y86402D01*
X273197Y86042D01*
X272841Y85673D01*
X272494Y85295D01*
X272156Y84909D01*
X271827Y84515D01*
X271508Y84113D01*
X271199Y83703D01*
X270900Y83286D01*
X270611Y82862D01*
X270332Y82431D01*
X270064Y81994D01*
X269806Y81550D01*
X269560Y81100D01*
X269324Y80645D01*
X269099Y80183D01*
X268886Y79717D01*
X268683Y79245D01*
X268493Y78769D01*
X268314Y78288D01*
X268146Y77803D01*
X267991Y77314D01*
X267847Y76821D01*
X267715Y76325D01*
X267595Y75826D01*
X267487Y75325D01*
X267392Y74820D01*
X267309Y74314D01*
X267238Y73806D01*
X267179Y73296D01*
X267132Y72785D01*
X267098Y72273D01*
X267077Y71760D01*
X267067Y71247D01*
X267307Y71247D01*
X267317Y71755D01*
X267338Y72261D01*
X267372Y72768D01*
X267418Y73273D01*
X267476Y73777D01*
X267546Y74279D01*
X267628Y74780D01*
X267723Y75278D01*
X267829Y75774D01*
X267948Y76267D01*
X268078Y76757D01*
X268220Y77244D01*
X268374Y77728D01*
X268540Y78207D01*
X268717Y78683D01*
X268905Y79153D01*
X269105Y79620D01*
X269316Y80081D01*
X269538Y80537D01*
X269771Y80988D01*
X270015Y81432D01*
X270270Y81871D01*
X270535Y82304D01*
X270811Y82729D01*
X271096Y83149D01*
X271392Y83561D01*
X271698Y83966D01*
X272013Y84363D01*
X272338Y84752D01*
X272672Y85134D01*
X273015Y85508D01*
X273368Y85873D01*
X273729Y86229D01*
X274098Y86577D01*
X274476Y86915D01*
X274862Y87244D01*
X275255Y87564D01*
X275657Y87875D01*
X276065Y88175D01*
X276481Y88466D01*
X276904Y88746D01*
X277333Y89016D01*
X277769Y89276D01*
X277888Y89067D01*
X277457Y88811D01*
X277033Y88544D01*
X276615Y88267D01*
X276204Y87979D01*
X275800Y87682D01*
X275404Y87376D01*
X275014Y87059D01*
X274633Y86734D01*
X274260Y86399D01*
X273895Y86056D01*
X273538Y85703D01*
X273190Y85343D01*
X272850Y84973D01*
X272520Y84596D01*
X272199Y84211D01*
X271887Y83818D01*
X271585Y83418D01*
X271293Y83011D01*
X271010Y82597D01*
X270738Y82176D01*
X270476Y81748D01*
X270224Y81314D01*
X269983Y80875D01*
X269753Y80429D01*
X269533Y79979D01*
X269325Y79523D01*
X269127Y79062D01*
X268941Y78596D01*
X268766Y78127D01*
X268602Y77653D01*
X268450Y77175D01*
X268310Y76694D01*
X268181Y76209D01*
X268064Y75721D01*
X267958Y75231D01*
X267865Y74739D01*
X267783Y74244D01*
X267714Y73747D01*
X267656Y73249D01*
X267611Y72750D01*
X267578Y72250D01*
X267557Y71749D01*
X267547Y71247D01*
X267787Y71247D01*
X267796Y71743D01*
X267817Y72238D01*
X267850Y72732D01*
X267895Y73226D01*
X267952Y73718D01*
X268021Y74209D01*
X268101Y74698D01*
X268194Y75185D01*
X268298Y75669D01*
X268414Y76151D01*
X268541Y76630D01*
X268680Y77105D01*
X268830Y77578D01*
X268992Y78046D01*
X269165Y78510D01*
X269349Y78970D01*
X269544Y79426D01*
X269750Y79876D01*
X269967Y80322D01*
X270195Y80762D01*
X270433Y81196D01*
X270682Y81625D01*
X270941Y82048D01*
X271210Y82464D01*
X271489Y82873D01*
X271778Y83276D01*
X272077Y83671D01*
X272385Y84059D01*
X272702Y84440D01*
X273029Y84813D01*
X273364Y85177D01*
X273708Y85534D01*
X274061Y85882D01*
X274421Y86222D01*
X274790Y86553D01*
X275167Y86874D01*
X275552Y87187D01*
X275944Y87490D01*
X276343Y87784D01*
X276749Y88067D01*
X277162Y88341D01*
X277581Y88605D01*
X278007Y88859D01*
X278126Y88651D01*
X277706Y88400D01*
X277291Y88139D01*
X276883Y87868D01*
X276482Y87588D01*
X276087Y87298D01*
X275700Y86998D01*
X275320Y86689D01*
X274948Y86371D01*
X274583Y86045D01*
X274227Y85709D01*
X273878Y85365D01*
X273538Y85012D01*
X273207Y84652D01*
X272884Y84284D01*
X272571Y83907D01*
X272266Y83524D01*
X271971Y83133D01*
X271686Y82735D01*
X271410Y82331D01*
X271144Y81920D01*
X270888Y81502D01*
X270642Y81079D01*
X270407Y80649D01*
X270182Y80214D01*
X269968Y79774D01*
X269764Y79329D01*
X269571Y78879D01*
X269389Y78424D01*
X269218Y77965D01*
X269058Y77503D01*
X268910Y77036D01*
X268772Y76566D01*
X268646Y76093D01*
X268532Y75617D01*
X268429Y75138D01*
X268338Y74657D01*
X268258Y74174D01*
X268190Y73689D01*
X268134Y73202D01*
X268090Y72715D01*
X268057Y72226D01*
X268036Y71737D01*
X268027Y71247D01*
X268267Y71247D01*
X268276Y71731D01*
X268297Y72214D01*
X268329Y72697D01*
X268373Y73179D01*
X268429Y73660D01*
X268496Y74139D01*
X268574Y74616D01*
X268665Y75091D01*
X268766Y75564D01*
X268879Y76035D01*
X269004Y76502D01*
X269139Y76967D01*
X269286Y77428D01*
X269444Y77885D01*
X269613Y78338D01*
X269793Y78787D01*
X269983Y79232D01*
X270185Y79672D01*
X270397Y80107D01*
X270619Y80536D01*
X270851Y80961D01*
X271094Y81379D01*
X271347Y81792D01*
X271610Y82198D01*
X271882Y82598D01*
X272164Y82991D01*
X272456Y83377D01*
X272757Y83756D01*
X273066Y84127D01*
X273385Y84491D01*
X273712Y84847D01*
X274048Y85196D01*
X274393Y85536D01*
X274745Y85867D01*
X275105Y86190D01*
X275473Y86504D01*
X275848Y86809D01*
X276231Y87105D01*
X276621Y87392D01*
X277017Y87669D01*
X277420Y87937D01*
X277830Y88194D01*
X278245Y88442D01*
X278364Y88234D01*
X277954Y87989D01*
X277549Y87734D01*
X277151Y87470D01*
X276760Y87196D01*
X276375Y86913D01*
X275997Y86621D01*
X275626Y86319D01*
X275262Y86009D01*
X274907Y85690D01*
X274559Y85362D01*
X274219Y85026D01*
X273887Y84682D01*
X273563Y84331D01*
X273249Y83971D01*
X272943Y83604D01*
X272645Y83229D01*
X272358Y82848D01*
X272079Y82460D01*
X271810Y82065D01*
X271550Y81664D01*
X271300Y81256D01*
X271061Y80843D01*
X270831Y80424D01*
X270611Y79999D01*
X270402Y79570D01*
X270203Y79135D01*
X270015Y78696D01*
X269837Y78252D01*
X269670Y77804D01*
X269514Y77353D01*
X269369Y76897D01*
X269235Y76438D01*
X269112Y75977D01*
X269000Y75512D01*
X268900Y75045D01*
X268811Y74575D01*
X268733Y74104D01*
X268667Y73630D01*
X268612Y73156D01*
X268568Y72680D01*
X268537Y72203D01*
X268516Y71725D01*
X268507Y71247D01*
X268747Y71247D01*
X268756Y71719D01*
X268776Y72191D01*
X268808Y72662D01*
X268851Y73132D01*
X268905Y73601D01*
X268971Y74069D01*
X269047Y74534D01*
X269135Y74998D01*
X269235Y75460D01*
X269345Y75918D01*
X269466Y76375D01*
X269599Y76828D01*
X269742Y77278D01*
X269896Y77724D01*
X270061Y78166D01*
X270236Y78604D01*
X270422Y79038D01*
X270619Y79467D01*
X270826Y79892D01*
X271043Y80311D01*
X271270Y80725D01*
X271506Y81133D01*
X271753Y81536D01*
X272010Y81932D01*
X272275Y82322D01*
X272551Y82706D01*
X272835Y83082D01*
X273128Y83452D01*
X273431Y83815D01*
X273742Y84170D01*
X274061Y84517D01*
X274389Y84857D01*
X274725Y85189D01*
X275068Y85512D01*
X275420Y85828D01*
X275779Y86134D01*
X276145Y86432D01*
X276518Y86721D01*
X276898Y87001D01*
X277285Y87271D01*
X277679Y87532D01*
X278078Y87784D01*
X278483Y88025D01*
X278603Y87817D01*
X278202Y87578D01*
X277808Y87330D01*
X277419Y87072D01*
X277037Y86805D01*
X276662Y86529D01*
X276293Y86243D01*
X275931Y85949D01*
X275577Y85646D01*
X275230Y85335D01*
X274891Y85016D01*
X274559Y84688D01*
X274235Y84352D01*
X273920Y84009D01*
X273613Y83658D01*
X273314Y83300D01*
X273025Y82935D01*
X272744Y82563D01*
X272472Y82184D01*
X272209Y81799D01*
X271956Y81408D01*
X271713Y81010D01*
X271479Y80607D01*
X271254Y80198D01*
X271040Y79784D01*
X270836Y79365D01*
X270642Y78941D01*
X270458Y78513D01*
X270285Y78080D01*
X270122Y77643D01*
X269970Y77203D01*
X269829Y76758D01*
X269698Y76311D01*
X269578Y75860D01*
X269469Y75407D01*
X269371Y74951D01*
X269284Y74493D01*
X269208Y74033D01*
X269143Y73572D01*
X269090Y73109D01*
X269047Y72644D01*
X269016Y72179D01*
X268996Y71714D01*
X268987Y71247D01*
D11*
X296164Y55372D02*
X301244Y55372D01*
X279908Y55372D02*
X275336Y55372D01*
D12*
X311785Y66945D02*
X316611Y66945D01*
X311785Y66945D02*
X311785Y68285D01*
X311787Y68355D01*
X311792Y68425D01*
X311802Y68495D01*
X311814Y68564D01*
X311831Y68632D01*
X311851Y68699D01*
X311874Y68766D01*
X311901Y68830D01*
X311931Y68894D01*
X311965Y68956D01*
X312001Y69015D01*
X312041Y69073D01*
X312084Y69129D01*
X312129Y69182D01*
X312178Y69233D01*
X312229Y69282D01*
X312282Y69327D01*
X312338Y69370D01*
X312396Y69410D01*
X312456Y69446D01*
X312517Y69480D01*
X312581Y69510D01*
X312645Y69537D01*
X312712Y69560D01*
X312779Y69580D01*
X312847Y69597D01*
X312916Y69609D01*
X312986Y69619D01*
X313056Y69624D01*
X313126Y69626D01*
X315270Y69626D01*
X315340Y69624D01*
X315410Y69619D01*
X315480Y69609D01*
X315549Y69597D01*
X315617Y69580D01*
X315684Y69560D01*
X315751Y69537D01*
X315815Y69510D01*
X315879Y69480D01*
X315941Y69446D01*
X316000Y69410D01*
X316058Y69370D01*
X316114Y69327D01*
X316167Y69282D01*
X316218Y69233D01*
X316267Y69182D01*
X316312Y69129D01*
X316355Y69073D01*
X316395Y69015D01*
X316431Y68955D01*
X316465Y68894D01*
X316495Y68830D01*
X316522Y68766D01*
X316545Y68699D01*
X316565Y68632D01*
X316582Y68564D01*
X316594Y68495D01*
X316604Y68425D01*
X316609Y68355D01*
X316611Y68285D01*
X316611Y66945D01*
X312857Y72614D02*
X311785Y73955D01*
X316611Y73955D01*
X316611Y75295D02*
X316611Y72614D01*
D13*
X81370Y123710D02*
X81370Y11710D01*
X16370Y11710D01*
X6370Y11710D01*
X6370Y123710D01*
X16370Y123710D01*
X81370Y123710D01*
X16370Y123710D02*
X16370Y11710D01*
D12*
X65405Y99146D02*
X69159Y99146D01*
X69224Y99144D01*
X69288Y99138D01*
X69352Y99128D01*
X69416Y99115D01*
X69478Y99097D01*
X69539Y99076D01*
X69599Y99052D01*
X69657Y99023D01*
X69714Y98991D01*
X69768Y98956D01*
X69820Y98918D01*
X69870Y98876D01*
X69917Y98832D01*
X69961Y98785D01*
X70003Y98735D01*
X70041Y98683D01*
X70076Y98629D01*
X70108Y98572D01*
X70137Y98514D01*
X70161Y98454D01*
X70182Y98393D01*
X70200Y98331D01*
X70213Y98267D01*
X70223Y98203D01*
X70229Y98139D01*
X70231Y98074D01*
X70231Y97537D01*
X66477Y102094D02*
X65405Y103434D01*
X70231Y103434D01*
X70231Y102094D02*
X70231Y104775D01*
D14*
X212598Y93472D02*
X212598Y81788D01*
X212598Y93472D02*
X215844Y93472D01*
X215957Y93470D01*
X216070Y93464D01*
X216183Y93454D01*
X216296Y93440D01*
X216408Y93423D01*
X216519Y93401D01*
X216629Y93376D01*
X216739Y93346D01*
X216847Y93313D01*
X216954Y93276D01*
X217060Y93236D01*
X217164Y93191D01*
X217267Y93143D01*
X217368Y93092D01*
X217467Y93037D01*
X217564Y92979D01*
X217659Y92917D01*
X217752Y92852D01*
X217842Y92784D01*
X217930Y92713D01*
X218016Y92638D01*
X218099Y92561D01*
X218179Y92481D01*
X218256Y92398D01*
X218331Y92312D01*
X218402Y92224D01*
X218470Y92134D01*
X218535Y92041D01*
X218597Y91946D01*
X218655Y91849D01*
X218710Y91750D01*
X218761Y91649D01*
X218809Y91546D01*
X218854Y91442D01*
X218894Y91336D01*
X218931Y91229D01*
X218964Y91121D01*
X218994Y91011D01*
X219019Y90901D01*
X219041Y90790D01*
X219058Y90678D01*
X219072Y90565D01*
X219082Y90452D01*
X219088Y90339D01*
X219090Y90226D01*
X219088Y90113D01*
X219082Y90000D01*
X219072Y89887D01*
X219058Y89774D01*
X219041Y89662D01*
X219019Y89551D01*
X218994Y89441D01*
X218964Y89331D01*
X218931Y89223D01*
X218894Y89116D01*
X218854Y89010D01*
X218809Y88906D01*
X218761Y88803D01*
X218710Y88702D01*
X218655Y88603D01*
X218597Y88506D01*
X218535Y88411D01*
X218470Y88318D01*
X218402Y88228D01*
X218331Y88140D01*
X218256Y88054D01*
X218179Y87971D01*
X218099Y87891D01*
X218016Y87814D01*
X217930Y87739D01*
X217842Y87668D01*
X217752Y87600D01*
X217659Y87535D01*
X217564Y87473D01*
X217467Y87415D01*
X217368Y87360D01*
X217267Y87309D01*
X217164Y87261D01*
X217060Y87216D01*
X216954Y87176D01*
X216847Y87139D01*
X216739Y87106D01*
X216629Y87076D01*
X216519Y87051D01*
X216408Y87029D01*
X216296Y87012D01*
X216183Y86998D01*
X216070Y86988D01*
X215957Y86982D01*
X215844Y86980D01*
X215844Y86981D02*
X212598Y86981D01*
X216493Y86981D02*
X219089Y81788D01*
X223954Y90876D02*
X227200Y93472D01*
X227200Y81788D01*
X230445Y81788D02*
X223954Y81788D01*
D13*
X145160Y89310D02*
X129160Y89310D01*
X159160Y80310D02*
X159160Y54310D01*
X145160Y45310D02*
X129160Y45310D01*
X115160Y54310D02*
X115160Y80310D01*
X145160Y49310D02*
X145160Y45310D01*
X129160Y45310D02*
X129160Y49310D01*
X145160Y85310D02*
X145160Y89310D01*
X129160Y89310D02*
X129160Y85310D01*
X124460Y67310D02*
X124464Y67622D01*
X124475Y67933D01*
X124494Y68244D01*
X124521Y68555D01*
X124556Y68865D01*
X124597Y69173D01*
X124647Y69481D01*
X124704Y69788D01*
X124769Y70093D01*
X124841Y70396D01*
X124920Y70697D01*
X125007Y70997D01*
X125101Y71294D01*
X125202Y71589D01*
X125311Y71881D01*
X125427Y72170D01*
X125550Y72457D01*
X125679Y72740D01*
X125816Y73020D01*
X125960Y73297D01*
X126110Y73570D01*
X126267Y73839D01*
X126430Y74104D01*
X126600Y74366D01*
X126777Y74623D01*
X126959Y74875D01*
X127148Y75123D01*
X127343Y75367D01*
X127543Y75605D01*
X127750Y75839D01*
X127962Y76067D01*
X128180Y76290D01*
X128403Y76508D01*
X128631Y76720D01*
X128865Y76927D01*
X129103Y77127D01*
X129347Y77322D01*
X129595Y77511D01*
X129847Y77693D01*
X130104Y77870D01*
X130366Y78040D01*
X130631Y78203D01*
X130900Y78360D01*
X131173Y78510D01*
X131450Y78654D01*
X131730Y78791D01*
X132013Y78920D01*
X132300Y79043D01*
X132589Y79159D01*
X132881Y79268D01*
X133176Y79369D01*
X133473Y79463D01*
X133773Y79550D01*
X134074Y79629D01*
X134377Y79701D01*
X134682Y79766D01*
X134989Y79823D01*
X135297Y79873D01*
X135605Y79914D01*
X135915Y79949D01*
X136226Y79976D01*
X136537Y79995D01*
X136848Y80006D01*
X137160Y80010D01*
X137472Y80006D01*
X137783Y79995D01*
X138094Y79976D01*
X138405Y79949D01*
X138715Y79914D01*
X139023Y79873D01*
X139331Y79823D01*
X139638Y79766D01*
X139943Y79701D01*
X140246Y79629D01*
X140547Y79550D01*
X140847Y79463D01*
X141144Y79369D01*
X141439Y79268D01*
X141731Y79159D01*
X142020Y79043D01*
X142307Y78920D01*
X142590Y78791D01*
X142870Y78654D01*
X143147Y78510D01*
X143420Y78360D01*
X143689Y78203D01*
X143954Y78040D01*
X144216Y77870D01*
X144473Y77693D01*
X144725Y77511D01*
X144973Y77322D01*
X145217Y77127D01*
X145455Y76927D01*
X145689Y76720D01*
X145917Y76508D01*
X146140Y76290D01*
X146358Y76067D01*
X146570Y75839D01*
X146777Y75605D01*
X146977Y75367D01*
X147172Y75123D01*
X147361Y74875D01*
X147543Y74623D01*
X147720Y74366D01*
X147890Y74104D01*
X148053Y73839D01*
X148210Y73570D01*
X148360Y73297D01*
X148504Y73020D01*
X148641Y72740D01*
X148770Y72457D01*
X148893Y72170D01*
X149009Y71881D01*
X149118Y71589D01*
X149219Y71294D01*
X149313Y70997D01*
X149400Y70697D01*
X149479Y70396D01*
X149551Y70093D01*
X149616Y69788D01*
X149673Y69481D01*
X149723Y69173D01*
X149764Y68865D01*
X149799Y68555D01*
X149826Y68244D01*
X149845Y67933D01*
X149856Y67622D01*
X149860Y67310D01*
X149856Y66998D01*
X149845Y66687D01*
X149826Y66376D01*
X149799Y66065D01*
X149764Y65755D01*
X149723Y65447D01*
X149673Y65139D01*
X149616Y64832D01*
X149551Y64527D01*
X149479Y64224D01*
X149400Y63923D01*
X149313Y63623D01*
X149219Y63326D01*
X149118Y63031D01*
X149009Y62739D01*
X148893Y62450D01*
X148770Y62163D01*
X148641Y61880D01*
X148504Y61600D01*
X148360Y61323D01*
X148210Y61050D01*
X148053Y60781D01*
X147890Y60516D01*
X147720Y60254D01*
X147543Y59997D01*
X147361Y59745D01*
X147172Y59497D01*
X146977Y59253D01*
X146777Y59015D01*
X146570Y58781D01*
X146358Y58553D01*
X146140Y58330D01*
X145917Y58112D01*
X145689Y57900D01*
X145455Y57693D01*
X145217Y57493D01*
X144973Y57298D01*
X144725Y57109D01*
X144473Y56927D01*
X144216Y56750D01*
X143954Y56580D01*
X143689Y56417D01*
X143420Y56260D01*
X143147Y56110D01*
X142870Y55966D01*
X142590Y55829D01*
X142307Y55700D01*
X142020Y55577D01*
X141731Y55461D01*
X141439Y55352D01*
X141144Y55251D01*
X140847Y55157D01*
X140547Y55070D01*
X140246Y54991D01*
X139943Y54919D01*
X139638Y54854D01*
X139331Y54797D01*
X139023Y54747D01*
X138715Y54706D01*
X138405Y54671D01*
X138094Y54644D01*
X137783Y54625D01*
X137472Y54614D01*
X137160Y54610D01*
X136848Y54614D01*
X136537Y54625D01*
X136226Y54644D01*
X135915Y54671D01*
X135605Y54706D01*
X135297Y54747D01*
X134989Y54797D01*
X134682Y54854D01*
X134377Y54919D01*
X134074Y54991D01*
X133773Y55070D01*
X133473Y55157D01*
X133176Y55251D01*
X132881Y55352D01*
X132589Y55461D01*
X132300Y55577D01*
X132013Y55700D01*
X131730Y55829D01*
X131450Y55966D01*
X131173Y56110D01*
X130900Y56260D01*
X130631Y56417D01*
X130366Y56580D01*
X130104Y56750D01*
X129847Y56927D01*
X129595Y57109D01*
X129347Y57298D01*
X129103Y57493D01*
X128865Y57693D01*
X128631Y57900D01*
X128403Y58112D01*
X128180Y58330D01*
X127962Y58553D01*
X127750Y58781D01*
X127543Y59015D01*
X127343Y59253D01*
X127148Y59497D01*
X126959Y59745D01*
X126777Y59997D01*
X126600Y60254D01*
X126430Y60516D01*
X126267Y60781D01*
X126110Y61050D01*
X125960Y61323D01*
X125816Y61600D01*
X125679Y61880D01*
X125550Y62163D01*
X125427Y62450D01*
X125311Y62739D01*
X125202Y63031D01*
X125101Y63326D01*
X125007Y63623D01*
X124920Y63923D01*
X124841Y64224D01*
X124769Y64527D01*
X124704Y64832D01*
X124647Y65139D01*
X124597Y65447D01*
X124556Y65755D01*
X124521Y66065D01*
X124494Y66376D01*
X124475Y66687D01*
X124464Y66998D01*
X124460Y67310D01*
D12*
X165679Y65998D02*
X165744Y65996D01*
X165808Y65990D01*
X165872Y65980D01*
X165936Y65967D01*
X165998Y65949D01*
X166059Y65928D01*
X166119Y65904D01*
X166177Y65875D01*
X166234Y65843D01*
X166288Y65808D01*
X166340Y65770D01*
X166390Y65728D01*
X166437Y65684D01*
X166481Y65637D01*
X166523Y65587D01*
X166561Y65535D01*
X166596Y65481D01*
X166628Y65424D01*
X166657Y65366D01*
X166681Y65306D01*
X166702Y65245D01*
X166720Y65183D01*
X166733Y65119D01*
X166743Y65055D01*
X166749Y64991D01*
X166751Y64926D01*
X166749Y64832D01*
X166743Y64738D01*
X166733Y64644D01*
X166720Y64551D01*
X166702Y64459D01*
X166681Y64367D01*
X166656Y64276D01*
X166627Y64186D01*
X166594Y64098D01*
X166558Y64011D01*
X166518Y63926D01*
X166475Y63842D01*
X166428Y63761D01*
X166378Y63681D01*
X166325Y63603D01*
X166268Y63528D01*
X166209Y63455D01*
X166146Y63385D01*
X166081Y63317D01*
X162997Y63452D02*
X162932Y63454D01*
X162868Y63460D01*
X162804Y63470D01*
X162740Y63483D01*
X162678Y63501D01*
X162617Y63522D01*
X162557Y63546D01*
X162499Y63575D01*
X162442Y63607D01*
X162388Y63642D01*
X162336Y63680D01*
X162286Y63722D01*
X162239Y63766D01*
X162195Y63813D01*
X162153Y63863D01*
X162115Y63915D01*
X162080Y63969D01*
X162048Y64026D01*
X162019Y64084D01*
X161995Y64144D01*
X161974Y64205D01*
X161956Y64267D01*
X161943Y64331D01*
X161933Y64395D01*
X161927Y64459D01*
X161925Y64524D01*
X161927Y64610D01*
X161932Y64696D01*
X161942Y64782D01*
X161955Y64867D01*
X161971Y64952D01*
X161991Y65036D01*
X162015Y65119D01*
X162042Y65201D01*
X162073Y65281D01*
X162107Y65361D01*
X162145Y65438D01*
X162186Y65514D01*
X162230Y65588D01*
X162277Y65661D01*
X162327Y65731D01*
X163935Y63988D02*
X163902Y63935D01*
X163865Y63884D01*
X163826Y63835D01*
X163784Y63788D01*
X163739Y63744D01*
X163692Y63703D01*
X163643Y63664D01*
X163591Y63628D01*
X163537Y63595D01*
X163482Y63566D01*
X163425Y63540D01*
X163366Y63517D01*
X163307Y63497D01*
X163246Y63481D01*
X163185Y63468D01*
X163122Y63459D01*
X163060Y63454D01*
X162997Y63452D01*
X164741Y65463D02*
X164774Y65516D01*
X164811Y65567D01*
X164850Y65616D01*
X164892Y65663D01*
X164937Y65707D01*
X164984Y65748D01*
X165033Y65787D01*
X165085Y65823D01*
X165139Y65856D01*
X165194Y65885D01*
X165251Y65911D01*
X165310Y65934D01*
X165369Y65954D01*
X165430Y65970D01*
X165491Y65983D01*
X165554Y65992D01*
X165616Y65997D01*
X165679Y65999D01*
X164740Y65463D02*
X163936Y63988D01*
X162997Y68621D02*
X161925Y69962D01*
X166751Y69962D01*
X166751Y71302D02*
X166751Y68621D01*
M02*
